<?xml version="1.0" encoding="utf-8"?>
<svg viewBox="0 0 500 500" xmlns="http://www.w3.org/2000/svg">
  <g transform="matrix(1, 0, 0, 1, 29.476604, 7.418275)">
    <path d="M 383.044 189.796 C 418.371 210.332 442.177 248.596 442.178 292.319 C 442.178 357.66 389.019 410.819 323.678 410.819 C 269.933 410.819 224.43 374.853 209.972 325.726 L 152.734 325.726 C 152.788 326.917 152.819 328.114 152.819 329.319 C 152.819 374.258 116.258 410.819 71.319 410.819 C 51.499 410.819 33.309 403.707 19.166 391.902 L 14.075 391.902 L 14.075 387.277 C -0.893 372.492 -10.181 351.97 -10.181 329.319 C -10.181 304.079 1.354 281.483 19.427 266.522 L 3.085 188.894 C 2.309 185.208 3.236 181.368 5.61 178.443 C 7.984 175.518 11.55 173.819 15.317 173.819 L 84.177 173.819 L 84.177 82.319 C 84.177 75.415 89.774 69.819 96.677 69.819 C 103.58 69.819 109.177 75.415 109.177 82.319 L 109.177 173.819 L 160.917 173.819 L 184.55 79.287 C 185.941 73.723 190.941 69.819 196.677 69.819 L 350.677 69.819 C 356.713 69.819 361.887 74.132 362.973 80.07 L 383.044 189.796 Z"/>
  </g>
</svg>