<?xml version="1.0" encoding="iso-8859-1"?>
<!-- Generator: Adobe Illustrator 24.2.0, SVG Export Plug-In . SVG Version: 6.00 Build 0)  -->
<svg version="1.1" xmlns="http://www.w3.org/2000/svg" xmlns:xlink="http://www.w3.org/1999/xlink" x="0px" y="0px"
	 viewBox="0 0 164.708 125.985" style="enable-background:new 0 0 164.708 125.985;" xml:space="preserve">
<g id="Opportunity5">
	<g>
		<g>
			<g>
				<polygon style="fill:#D5CDCB;" points="94.752,124.571 163.697,55.626 31.468,1.179 1.414,31.233 				"/>
			</g>
			<g>
				<path style="fill:#1A1A1A;" d="M164.708,54.961L31.232,0L0,31.233l94.752,94.752l69.956-69.956V54.961z M2.828,31.233
					L31.703,2.357L161.93,55.979l-67.178,67.178L2.828,31.233z"/>
			</g>
		</g>
		<g>
			<g>
				<g>
					<path style="stroke:#000000;stroke-width:0.25;stroke-miterlimit:10;" d="M27.815,30.201c-0.877,0.877-1.889,1.23-3.035,1.061
						c-1.145-0.168-2.201-0.736-3.168-1.703c-0.961-0.961-1.504-2.023-1.631-3.188c-0.127-1.166,0.234-2.174,1.086-3.024
						c0.855-0.856,1.857-1.212,3.002-1.063c1.143,0.147,2.199,0.706,3.17,1.677c1.02,1.019,1.582,2.1,1.691,3.244
						C29.04,28.348,28.669,29.348,27.815,30.201z M26.866,29.235c0.43-0.428,0.613-0.969,0.557-1.619
						c-0.059-0.65-0.553-1.441-1.484-2.373c-0.758-0.758-1.473-1.229-2.148-1.414c-0.674-0.186-1.27-0.021-1.785,0.495
						c-1.02,1.019-0.707,2.348,0.932,3.987c0.797,0.797,1.531,1.271,2.199,1.422C25.808,29.885,26.384,29.718,26.866,29.235z"/>
					<path style="stroke:#000000;stroke-width:0.25;stroke-miterlimit:10;" d="M36.743,36.626l-1.189,1.188l-6.598-6.598
						l2.703-2.702c0.77-0.771,1.535-1.147,2.295-1.132c0.762,0.017,1.406,0.289,1.934,0.817c0.604,0.603,0.891,1.293,0.861,2.069
						s-0.354,1.475-0.973,2.093l-1.648,1.648L36.743,36.626z M33.108,32.99l1.406-1.406c0.367-0.367,0.559-0.738,0.57-1.111
						c0.014-0.374-0.129-0.711-0.43-1.011c-0.271-0.271-0.592-0.413-0.965-0.428c-0.371-0.015-0.791,0.212-1.26,0.679l-1.299,1.301
						L33.108,32.99z"/>
					<path style="stroke:#000000;stroke-width:0.25;stroke-miterlimit:10;" d="M47.017,41.908l-1.189,1.189L39.23,36.5l2.701-2.701
						c0.771-0.771,1.537-1.148,2.297-1.133c0.76,0.018,1.404,0.289,1.934,0.818c0.604,0.603,0.889,1.291,0.859,2.068
						c-0.027,0.776-0.352,1.475-0.971,2.093l-1.648,1.648L47.017,41.908z M43.382,38.274l1.406-1.406
						c0.367-0.367,0.557-0.738,0.57-1.111s-0.131-0.711-0.43-1.01c-0.271-0.271-0.592-0.414-0.965-0.429s-0.791,0.212-1.26,0.679
						l-1.299,1.301L43.382,38.274z"/>
					<path style="stroke:#000000;stroke-width:0.25;stroke-miterlimit:10;" d="M58.634,46.052c-0.877,0.876-1.889,1.23-3.033,1.062
						c-1.146-0.17-2.203-0.738-3.17-1.705c-0.959-0.96-1.504-2.022-1.631-3.188c-0.127-1.164,0.234-2.173,1.086-3.023
						c0.857-0.857,1.857-1.211,3.002-1.063c1.143,0.147,2.199,0.707,3.17,1.677c1.02,1.019,1.582,2.1,1.691,3.243
						C59.858,44.199,59.487,45.197,58.634,46.052z M57.687,45.085c0.428-0.429,0.613-0.968,0.555-1.619
						c-0.057-0.651-0.553-1.442-1.484-2.374c-0.756-0.757-1.473-1.228-2.148-1.414c-0.674-0.184-1.27-0.02-1.785,0.496
						c-1.018,1.019-0.707,2.348,0.932,3.988c0.797,0.796,1.531,1.27,2.199,1.42C56.626,45.735,57.202,45.569,57.687,45.085z"/>
					<path style="stroke:#000000;stroke-width:0.25;stroke-miterlimit:10;" d="M71.517,48.522l-1.258,1.258l-3.736-1.688
						l-1.672,1.672l2.711,2.713l-1.189,1.189l-6.598-6.599l2.861-2.862c0.797-0.795,1.561-1.201,2.295-1.215
						c0.732-0.015,1.385,0.264,1.955,0.834c0.848,0.847,1.033,1.826,0.561,2.938L71.517,48.522z M63.898,48.813l1.48-1.479
						c0.428-0.429,0.656-0.838,0.686-1.228s-0.113-0.743-0.43-1.059c-0.291-0.291-0.629-0.422-1.012-0.394
						c-0.387,0.026-0.764,0.226-1.135,0.597l-1.576,1.575L63.898,48.813z"/>
					<path style="stroke:#000000;stroke-width:0.25;stroke-miterlimit:10;" d="M78.952,56.643l-1.275,1.276l-5.578-5.578
						l-1.756,1.755l-1.02-1.02l4.785-4.786l1.02,1.021l-1.754,1.754L78.952,56.643z"/>
					<path style="stroke:#000000;stroke-width:0.25;stroke-miterlimit:10;" d="M84.851,53.106l4.238,4.238
						c0.574,0.574,0.951,1.08,1.131,1.518c0.182,0.439,0.199,0.955,0.053,1.547c-0.145,0.594-0.482,1.156-1.014,1.688
						c-0.539,0.538-1.078,0.884-1.617,1.037c-0.539,0.152-1.055,0.137-1.541-0.048c-0.488-0.186-0.994-0.54-1.516-1.062
						l-4.326-4.326l1.213-1.213l4.238,4.238c0.58,0.58,1.084,0.84,1.51,0.779c0.424-0.063,0.799-0.254,1.121-0.576
						c0.369-0.37,0.568-0.764,0.596-1.182s-0.236-0.902-0.789-1.457l-4.24-4.239L84.851,53.106z"/>
					<path style="stroke:#000000;stroke-width:0.25;stroke-miterlimit:10;" d="M102.175,64.532l-1.154,1.155l-6.719-1.711
						c-0.104-0.025-0.271-0.068-0.504-0.126c-0.102-0.025-0.264-0.067-0.482-0.126l4.834,4.834l-0.957,0.957l-6.6-6.598l1.314-1.314
						l6.197,1.576c0.053,0.012,0.43,0.109,1.133,0.289l-4.598-4.598l0.938-0.938L102.175,64.532z"/>
					<path style="stroke:#000000;stroke-width:0.25;stroke-miterlimit:10;" d="M108.653,73.61l-1.189,1.189l-6.598-6.598
						l1.189-1.189L108.653,73.61z"/>
					<path style="stroke:#000000;stroke-width:0.25;stroke-miterlimit:10;" d="M120.044,77.777l-1.277,1.275l-5.578-5.578
						l-1.754,1.756l-1.02-1.021l4.785-4.786l1.02,1.021l-1.754,1.755L120.044,77.777z"/>
					<path style="stroke:#000000;stroke-width:0.25;stroke-miterlimit:10;" d="M130.665,82.713l-1.262,1.262l-2.785-2.784
						l-6.061-1.566l1.439-1.44l4.287,1.155l-1.223-4.22l1.141-1.141l1.678,5.95L130.665,82.713z"/>
				</g>
			</g>
			<g>
				<g>
					<path style="fill:#FFFFFF;stroke:#000000;stroke-width:0.25;stroke-miterlimit:10;" d="M26.815,29.201
						c-0.877,0.877-1.889,1.23-3.035,1.061c-1.145-0.168-2.201-0.736-3.168-1.703c-0.961-0.961-1.504-2.023-1.631-3.188
						c-0.127-1.166,0.234-2.174,1.086-3.024c0.855-0.856,1.857-1.212,3.002-1.063c1.143,0.147,2.199,0.706,3.17,1.677
						c1.02,1.019,1.582,2.1,1.691,3.244C28.04,27.348,27.669,28.348,26.815,29.201z M25.866,28.235
						c0.43-0.428,0.613-0.969,0.557-1.619c-0.059-0.65-0.553-1.441-1.484-2.373c-0.758-0.758-1.473-1.229-2.148-1.414
						c-0.674-0.186-1.27-0.021-1.785,0.495c-1.02,1.019-0.707,2.348,0.932,3.987c0.797,0.797,1.531,1.271,2.199,1.422
						C24.808,28.885,25.384,28.718,25.866,28.235z"/>
					<path style="fill:#FFFFFF;stroke:#000000;stroke-width:0.25;stroke-miterlimit:10;" d="M35.743,35.626l-1.189,1.188
						l-6.598-6.598l2.703-2.702c0.77-0.771,1.535-1.147,2.295-1.132c0.762,0.017,1.406,0.289,1.934,0.817
						c0.604,0.603,0.891,1.293,0.861,2.069s-0.354,1.475-0.973,2.093l-1.648,1.648L35.743,35.626z M32.108,31.99l1.406-1.406
						c0.367-0.367,0.559-0.738,0.57-1.111c0.014-0.374-0.129-0.711-0.43-1.011c-0.271-0.271-0.592-0.413-0.965-0.428
						c-0.371-0.015-0.791,0.212-1.26,0.679l-1.299,1.301L32.108,31.99z"/>
					<path style="fill:#FFFFFF;stroke:#000000;stroke-width:0.25;stroke-miterlimit:10;" d="M46.017,40.908l-1.189,1.189L38.23,35.5
						l2.701-2.701c0.771-0.771,1.537-1.148,2.297-1.133c0.76,0.018,1.404,0.289,1.934,0.818c0.604,0.603,0.889,1.291,0.859,2.068
						c-0.027,0.776-0.352,1.475-0.971,2.093l-1.648,1.648L46.017,40.908z M42.382,37.274l1.406-1.406
						c0.367-0.367,0.557-0.738,0.57-1.111s-0.131-0.711-0.43-1.01c-0.271-0.271-0.592-0.414-0.965-0.429s-0.791,0.212-1.26,0.679
						l-1.299,1.301L42.382,37.274z"/>
					<path style="fill:#FFFFFF;stroke:#000000;stroke-width:0.25;stroke-miterlimit:10;" d="M57.634,45.052
						c-0.877,0.876-1.889,1.23-3.033,1.062c-1.146-0.17-2.203-0.738-3.17-1.705c-0.959-0.96-1.504-2.022-1.631-3.188
						c-0.127-1.164,0.234-2.173,1.086-3.023c0.857-0.857,1.857-1.211,3.002-1.063c1.143,0.147,2.199,0.707,3.17,1.677
						c1.02,1.019,1.582,2.1,1.691,3.243C58.858,43.199,58.487,44.197,57.634,45.052z M56.687,44.085
						c0.428-0.429,0.613-0.968,0.555-1.619c-0.057-0.651-0.553-1.442-1.484-2.374c-0.756-0.757-1.473-1.228-2.148-1.414
						c-0.674-0.184-1.27-0.02-1.785,0.496c-1.018,1.019-0.707,2.348,0.932,3.988c0.797,0.796,1.531,1.27,2.199,1.42
						C55.626,44.735,56.202,44.569,56.687,44.085z"/>
					<path style="fill:#FFFFFF;stroke:#000000;stroke-width:0.25;stroke-miterlimit:10;" d="M70.517,47.522l-1.258,1.258
						l-3.736-1.688l-1.672,1.672l2.711,2.713l-1.189,1.189l-6.598-6.599l2.861-2.862c0.797-0.795,1.561-1.201,2.295-1.215
						c0.732-0.015,1.385,0.264,1.955,0.834c0.848,0.847,1.033,1.826,0.561,2.938L70.517,47.522z M62.898,47.813l1.48-1.479
						c0.428-0.429,0.656-0.838,0.686-1.228s-0.113-0.743-0.43-1.059c-0.291-0.291-0.629-0.422-1.012-0.394
						c-0.387,0.026-0.764,0.226-1.135,0.597l-1.576,1.575L62.898,47.813z"/>
					<path style="fill:#FFFFFF;stroke:#000000;stroke-width:0.25;stroke-miterlimit:10;" d="M77.952,55.643l-1.275,1.276
						l-5.578-5.578l-1.756,1.755l-1.02-1.02l4.785-4.786l1.02,1.021l-1.754,1.754L77.952,55.643z"/>
					<path style="fill:#FFFFFF;stroke:#000000;stroke-width:0.25;stroke-miterlimit:10;" d="M83.851,52.106l4.238,4.238
						c0.574,0.574,0.951,1.08,1.131,1.518c0.182,0.439,0.199,0.955,0.053,1.547c-0.145,0.594-0.482,1.156-1.014,1.688
						c-0.539,0.538-1.078,0.884-1.617,1.037c-0.539,0.152-1.055,0.137-1.541-0.048c-0.488-0.186-0.994-0.54-1.516-1.062
						l-4.326-4.326l1.213-1.213l4.238,4.238c0.58,0.58,1.084,0.84,1.51,0.779c0.424-0.063,0.799-0.254,1.121-0.576
						c0.369-0.37,0.568-0.764,0.596-1.182s-0.236-0.902-0.789-1.457l-4.24-4.239L83.851,52.106z"/>
					<path style="fill:#FFFFFF;stroke:#000000;stroke-width:0.25;stroke-miterlimit:10;" d="M101.175,63.532l-1.154,1.155
						l-6.719-1.711c-0.104-0.025-0.271-0.068-0.504-0.126c-0.102-0.025-0.264-0.067-0.482-0.126l4.834,4.834l-0.957,0.957
						l-6.6-6.598l1.314-1.314l6.197,1.576c0.053,0.012,0.43,0.109,1.133,0.289l-4.598-4.598l0.938-0.938L101.175,63.532z"/>
					<path style="fill:#FFFFFF;stroke:#000000;stroke-width:0.25;stroke-miterlimit:10;" d="M107.653,72.61l-1.189,1.189
						l-6.598-6.598l1.189-1.189L107.653,72.61z"/>
					<path style="fill:#FFFFFF;stroke:#000000;stroke-width:0.25;stroke-miterlimit:10;" d="M119.044,76.777l-1.277,1.275
						l-5.578-5.578l-1.754,1.756l-1.02-1.021l4.785-4.786l1.02,1.021l-1.754,1.755L119.044,76.777z"/>
					<path style="fill:#FFFFFF;stroke:#000000;stroke-width:0.25;stroke-miterlimit:10;" d="M129.665,81.713l-1.262,1.262
						l-2.785-2.784l-6.061-1.566l1.439-1.44l4.287,1.155l-1.223-4.22l1.141-1.141l1.678,5.95L129.665,81.713z"/>
				</g>
			</g>
		</g>
	</g>
</g>
<g id="Layer_1">
</g>
</svg>
