<?xml version="1.0" encoding="iso-8859-1"?>
<!-- Generator: Adobe Illustrator 24.2.0, SVG Export Plug-In . SVG Version: 6.00 Build 0)  -->
<svg version="1.1" xmlns="http://www.w3.org/2000/svg" xmlns:xlink="http://www.w3.org/1999/xlink" x="0px" y="0px"
	 viewBox="0 0 163.81 126.089" style="enable-background:new 0 0 163.81 126.089;" xml:space="preserve">
<g id="Opportunity4">
	<g>
		<g>
			<g>
				<polygon style="fill:#D4CDC7;" points="94.752,1.414 162.81,69.306 31.567,124.905 1.414,94.752 				"/>
			</g>
			<g>
				<path style="fill:#1A1A1A;" d="M163.81,68.891L94.751,0L0,94.751l31.337,31.337l132.473-56.12V68.891z M2.828,94.751
					L94.753,2.827l66.299,66.138L31.798,123.722L2.828,94.751z"/>
			</g>
		</g>
		<g>
			<g>
				<g>
					<path style="stroke:#000000;stroke-width:0.25;stroke-miterlimit:10;" d="M42.824,111.779c0.877,0.877,1.23,1.888,1.061,3.034
						c-0.169,1.145-0.736,2.201-1.703,3.168c-0.961,0.961-2.023,1.504-3.188,1.631c-1.166,0.127-2.174-0.234-3.025-1.085
						c-0.856-0.856-1.211-1.858-1.063-3.002s0.707-2.2,1.678-3.171c1.018-1.019,2.1-1.582,3.243-1.691
						S41.971,110.926,42.824,111.779z M41.857,112.728c-0.429-0.43-0.969-0.613-1.619-0.557c-0.651,0.059-1.442,0.553-2.374,1.484
						c-0.758,0.758-1.228,1.473-1.414,2.148c-0.185,0.674-0.021,1.271,0.495,1.786c1.019,1.019,2.348,0.707,3.988-0.933
						c0.797-0.797,1.27-1.53,1.421-2.199C42.507,113.786,42.34,113.21,41.857,112.728z"/>
					<path style="stroke:#000000;stroke-width:0.25;stroke-miterlimit:10;" d="M49.248,102.851l1.189,1.189l-6.598,6.598
						l-2.703-2.702c-0.77-0.771-1.146-1.535-1.131-2.296s0.289-1.405,0.816-1.934c0.604-0.604,1.293-0.89,2.07-0.86
						c0.775,0.029,1.474,0.353,2.092,0.972l1.648,1.648L49.248,102.851z M45.613,106.486l-1.406-1.406
						c-0.367-0.367-0.738-0.558-1.112-0.57c-0.374-0.014-0.71,0.13-1.011,0.43c-0.271,0.271-0.412,0.593-0.428,0.965
						c-0.014,0.372,0.213,0.792,0.68,1.26l1.301,1.3L45.613,106.486z"/>
					<path style="stroke:#000000;stroke-width:0.25;stroke-miterlimit:10;" d="M54.531,92.577l1.189,1.189l-6.598,6.598
						l-2.702-2.701c-0.771-0.771-1.147-1.536-1.132-2.297c0.017-0.76,0.289-1.404,0.817-1.934c0.603-0.603,1.292-0.889,2.068-0.859
						c0.776,0.028,1.475,0.352,2.093,0.971l1.648,1.648L54.531,92.577z M50.897,96.212l-1.406-1.406
						c-0.367-0.367-0.738-0.557-1.111-0.57c-0.374-0.014-0.711,0.131-1.011,0.43c-0.271,0.271-0.413,0.593-0.429,0.965
						c-0.014,0.373,0.213,0.792,0.68,1.26l1.301,1.3L50.897,96.212z"/>
					<path style="stroke:#000000;stroke-width:0.25;stroke-miterlimit:10;" d="M58.674,80.961c0.877,0.876,1.23,1.888,1.062,3.032
						c-0.169,1.146-0.737,2.203-1.704,3.17c-0.961,0.96-2.023,1.504-3.188,1.631c-1.165,0.127-2.174-0.234-3.023-1.085
						c-0.857-0.857-1.212-1.858-1.063-3.003c0.147-1.143,0.707-2.199,1.677-3.17c1.02-1.019,2.1-1.582,3.244-1.691
						C56.821,79.736,57.82,80.107,58.674,80.961z M57.707,81.908c-0.428-0.429-0.968-0.614-1.619-0.556
						c-0.65,0.057-1.441,0.553-2.373,1.484c-0.758,0.757-1.229,1.473-1.414,2.148c-0.185,0.674-0.02,1.27,0.496,1.785
						c1.018,1.019,2.348,0.707,3.987-0.932c0.796-0.797,1.271-1.53,1.421-2.199C58.357,82.968,58.191,82.392,57.707,81.908z"/>
					<path style="stroke:#000000;stroke-width:0.25;stroke-miterlimit:10;" d="M61.145,68.077l1.257,1.258l-1.687,3.736l1.672,1.672
						l2.712-2.711l1.189,1.189l-6.599,6.598l-2.861-2.861c-0.796-0.797-1.201-1.561-1.215-2.295
						c-0.016-0.732,0.263-1.385,0.833-1.955c0.847-0.847,1.827-1.033,2.938-0.561L61.145,68.077z M61.435,75.696l-1.479-1.479
						c-0.428-0.429-0.838-0.657-1.227-0.687c-0.391-0.029-0.744,0.114-1.06,0.43c-0.29,0.291-0.421,0.629-0.394,1.013
						c0.027,0.386,0.227,0.764,0.597,1.134l1.575,1.576L61.435,75.696z"/>
					<path style="stroke:#000000;stroke-width:0.25;stroke-miterlimit:10;" d="M69.266,60.642l1.275,1.276l-5.578,5.578l1.756,1.755
						l-1.021,1.02l-4.786-4.785l1.021-1.02l1.755,1.754L69.266,60.642z"/>
					<path style="stroke:#000000;stroke-width:0.25;stroke-miterlimit:10;" d="M65.728,54.743l4.239-4.238
						c0.574-0.574,1.08-0.95,1.518-1.131c0.438-0.182,0.954-0.199,1.547-0.053c0.594,0.145,1.155,0.482,1.688,1.015
						c0.537,0.538,0.883,1.077,1.036,1.616s0.137,1.055-0.048,1.542c-0.186,0.488-0.539,0.993-1.061,1.516l-4.326,4.326
						l-1.214-1.214l4.239-4.238c0.58-0.58,0.84-1.083,0.779-1.509c-0.063-0.425-0.254-0.799-0.576-1.121
						c-0.371-0.37-0.765-0.569-1.182-0.597c-0.418-0.027-0.903,0.236-1.457,0.79l-4.24,4.239L65.728,54.743z"/>
					<path style="stroke:#000000;stroke-width:0.25;stroke-miterlimit:10;" d="M77.154,37.419l1.156,1.155L76.6,45.293
						c-0.026,0.103-0.068,0.271-0.127,0.503c-0.025,0.103-0.066,0.264-0.125,0.482l4.834-4.833l0.957,0.957l-6.599,6.599
						l-1.314-1.314l1.576-6.197c0.013-0.053,0.109-0.43,0.29-1.132l-4.598,4.597l-0.938-0.938L77.154,37.419z"/>
					<path style="stroke:#000000;stroke-width:0.25;stroke-miterlimit:10;" d="M86.232,30.941l1.189,1.189l-6.598,6.598
						l-1.189-1.189L86.232,30.941z"/>
					<path style="stroke:#000000;stroke-width:0.25;stroke-miterlimit:10;" d="M90.4,19.551l1.275,1.276l-5.578,5.578l1.755,1.754
						l-1.021,1.021l-4.785-4.786l1.02-1.02l1.756,1.755L90.4,19.551z"/>
					<path style="stroke:#000000;stroke-width:0.25;stroke-miterlimit:10;" d="M95.336,8.93l1.262,1.262l-2.785,2.784l-1.566,6.062
						l-1.439-1.44l1.154-4.287l-4.219,1.223l-1.141-1.141l5.949-1.678L95.336,8.93z"/>
				</g>
			</g>
			<g>
				<g>
					<path style="fill:#FFFFFF;stroke:#000000;stroke-width:0.25;stroke-miterlimit:10;" d="M41.824,110.779
						c0.877,0.877,1.23,1.888,1.061,3.034c-0.169,1.145-0.736,2.201-1.703,3.168c-0.961,0.961-2.023,1.504-3.188,1.631
						c-1.166,0.127-2.174-0.234-3.025-1.085c-0.856-0.856-1.211-1.858-1.063-3.002s0.707-2.2,1.678-3.171
						c1.018-1.019,2.1-1.582,3.243-1.691S40.971,109.926,41.824,110.779z M40.857,111.728c-0.429-0.43-0.969-0.613-1.619-0.557
						c-0.651,0.059-1.442,0.553-2.374,1.484c-0.758,0.758-1.228,1.473-1.414,2.148c-0.185,0.674-0.021,1.271,0.495,1.786
						c1.019,1.019,2.348,0.707,3.988-0.933c0.797-0.797,1.27-1.53,1.421-2.199C41.507,112.786,41.34,112.21,40.857,111.728z"/>
					<path style="fill:#FFFFFF;stroke:#000000;stroke-width:0.25;stroke-miterlimit:10;" d="M48.248,101.851l1.189,1.189
						l-6.598,6.598l-2.703-2.702c-0.77-0.771-1.146-1.535-1.131-2.296s0.289-1.405,0.816-1.934c0.604-0.604,1.293-0.89,2.07-0.86
						c0.775,0.029,1.474,0.353,2.092,0.972l1.648,1.648L48.248,101.851z M44.613,105.486l-1.406-1.406
						c-0.367-0.367-0.738-0.558-1.112-0.57c-0.374-0.014-0.71,0.13-1.011,0.43c-0.271,0.271-0.412,0.593-0.428,0.965
						c-0.014,0.372,0.213,0.792,0.68,1.26l1.301,1.3L44.613,105.486z"/>
					<path style="fill:#FFFFFF;stroke:#000000;stroke-width:0.25;stroke-miterlimit:10;" d="M53.531,91.577l1.189,1.189
						l-6.598,6.598l-2.702-2.701c-0.771-0.771-1.147-1.536-1.132-2.297c0.017-0.76,0.289-1.404,0.817-1.934
						c0.603-0.603,1.292-0.889,2.068-0.859c0.776,0.028,1.475,0.352,2.093,0.971l1.648,1.648L53.531,91.577z M49.897,95.212
						l-1.406-1.406c-0.367-0.367-0.738-0.557-1.111-0.57c-0.374-0.014-0.711,0.131-1.011,0.43c-0.271,0.271-0.413,0.593-0.429,0.965
						c-0.014,0.373,0.213,0.792,0.68,1.26l1.301,1.3L49.897,95.212z"/>
					<path style="fill:#FFFFFF;stroke:#000000;stroke-width:0.25;stroke-miterlimit:10;" d="M57.674,79.961
						c0.877,0.876,1.23,1.888,1.062,3.032c-0.169,1.146-0.737,2.203-1.704,3.17c-0.961,0.96-2.023,1.504-3.188,1.631
						c-1.165,0.127-2.174-0.234-3.023-1.085c-0.857-0.857-1.212-1.858-1.063-3.003c0.147-1.143,0.707-2.199,1.677-3.17
						c1.02-1.019,2.1-1.582,3.244-1.691C55.821,78.736,56.82,79.107,57.674,79.961z M56.707,80.908
						c-0.428-0.429-0.968-0.614-1.619-0.556c-0.65,0.057-1.441,0.553-2.373,1.484c-0.758,0.757-1.229,1.473-1.414,2.148
						c-0.185,0.674-0.02,1.27,0.496,1.785c1.018,1.019,2.348,0.707,3.987-0.932c0.796-0.797,1.271-1.53,1.421-2.199
						C57.357,81.968,57.191,81.392,56.707,80.908z"/>
					<path style="fill:#FFFFFF;stroke:#000000;stroke-width:0.25;stroke-miterlimit:10;" d="M60.145,67.077l1.257,1.258
						l-1.687,3.736l1.672,1.672l2.712-2.711l1.189,1.189l-6.599,6.598l-2.861-2.861c-0.796-0.797-1.201-1.561-1.215-2.295
						c-0.016-0.732,0.263-1.385,0.833-1.955c0.847-0.847,1.827-1.033,2.938-0.561L60.145,67.077z M60.435,74.696l-1.479-1.479
						c-0.428-0.429-0.838-0.657-1.227-0.687c-0.391-0.029-0.744,0.114-1.06,0.43c-0.29,0.291-0.421,0.629-0.394,1.013
						c0.027,0.386,0.227,0.764,0.597,1.134l1.575,1.576L60.435,74.696z"/>
					<path style="fill:#FFFFFF;stroke:#000000;stroke-width:0.25;stroke-miterlimit:10;" d="M68.266,59.642l1.275,1.276
						l-5.578,5.578l1.756,1.755l-1.021,1.02l-4.786-4.785l1.021-1.02l1.755,1.754L68.266,59.642z"/>
					<path style="fill:#FFFFFF;stroke:#000000;stroke-width:0.25;stroke-miterlimit:10;" d="M64.728,53.743l4.239-4.238
						c0.574-0.574,1.08-0.95,1.518-1.131c0.438-0.182,0.954-0.199,1.547-0.053c0.594,0.145,1.155,0.482,1.688,1.015
						c0.537,0.538,0.883,1.077,1.036,1.616s0.137,1.055-0.048,1.542c-0.186,0.488-0.539,0.993-1.061,1.516l-4.326,4.326
						l-1.214-1.214l4.239-4.238c0.58-0.58,0.84-1.083,0.779-1.509c-0.063-0.425-0.254-0.799-0.576-1.121
						c-0.371-0.37-0.765-0.569-1.182-0.597c-0.418-0.027-0.903,0.236-1.457,0.79l-4.24,4.239L64.728,53.743z"/>
					<path style="fill:#FFFFFF;stroke:#000000;stroke-width:0.25;stroke-miterlimit:10;" d="M76.154,36.419l1.156,1.155L75.6,44.293
						c-0.026,0.103-0.068,0.271-0.127,0.503c-0.025,0.103-0.066,0.264-0.125,0.482l4.834-4.833l0.957,0.957l-6.599,6.599
						l-1.314-1.314l1.576-6.197c0.013-0.053,0.109-0.43,0.29-1.132l-4.598,4.597l-0.938-0.938L76.154,36.419z"/>
					<path style="fill:#FFFFFF;stroke:#000000;stroke-width:0.25;stroke-miterlimit:10;" d="M85.232,29.941l1.189,1.189
						l-6.598,6.598l-1.189-1.189L85.232,29.941z"/>
					<path style="fill:#FFFFFF;stroke:#000000;stroke-width:0.25;stroke-miterlimit:10;" d="M89.4,18.551l1.275,1.276l-5.578,5.578
						l1.755,1.754l-1.021,1.021l-4.785-4.786l1.02-1.02l1.756,1.755L89.4,18.551z"/>
					<path style="fill:#FFFFFF;stroke:#000000;stroke-width:0.25;stroke-miterlimit:10;" d="M94.336,7.93l1.262,1.262l-2.785,2.784
						l-1.566,6.062l-1.439-1.44l1.154-4.287l-4.219,1.223l-1.141-1.141l5.949-1.678L94.336,7.93z"/>
				</g>
			</g>
		</g>
	</g>
</g>
<g id="Layer_1">
</g>
</svg>
