<?xml version="1.0" encoding="iso-8859-1"?>
<!-- Generator: Adobe Illustrator 24.2.0, SVG Export Plug-In . SVG Version: 6.00 Build 0)  -->
<svg version="1.1" xmlns="http://www.w3.org/2000/svg" xmlns:xlink="http://www.w3.org/1999/xlink" x="0px" y="0px"
	 viewBox="0 0 134 98.913" style="enable-background:new 0 0 134 98.913;" xml:space="preserve">
<g id="Opportunity2">
	<g>
		<g>
			<g>
				<polygon style="fill:#DDD9D8;" points="1,1 1,98.504 133,45.019 133,1 				"/>
			</g>
			<g>
				<path style="fill:#1A1A1A;" d="M0,98.913V0h134v45.692L0,98.913z M2,2v95.02l130-52.675V2H2z"/>
			</g>
		</g>
		<g>
			<g>
				<g>
					<path style="stroke:#000000;stroke-width:0.25;stroke-miterlimit:10;" d="M118.7,20.423c0-1.24,0.465-2.205,1.395-2.896
						s2.078-1.035,3.445-1.035c1.358,0,2.494,0.366,3.407,1.101c0.914,0.733,1.371,1.702,1.371,2.905
						c0,1.212-0.457,2.17-1.371,2.874c-0.913,0.704-2.056,1.057-3.428,1.057c-1.44,0-2.604-0.366-3.49-1.098
						C119.143,22.6,118.7,21.63,118.7,20.423z M120.053,20.437c0,0.605,0.251,1.118,0.752,1.538c0.501,0.419,1.41,0.629,2.728,0.629
						c1.071,0,1.91-0.174,2.52-0.52c0.607-0.347,0.912-0.885,0.912-1.613c0-1.44-1.16-2.16-3.479-2.16
						c-1.126,0-1.979,0.184-2.56,0.55C120.343,19.228,120.053,19.753,120.053,20.437z"/>
					<path style="stroke:#000000;stroke-width:0.25;stroke-miterlimit:10;" d="M107.843,22.194v-1.682h9.331v3.821
						c0,1.09-0.274,1.897-0.823,2.424c-0.55,0.526-1.198,0.789-1.945,0.789c-0.853,0-1.543-0.284-2.071-0.854
						c-0.528-0.569-0.793-1.292-0.793-2.167v-2.331H107.843z M112.984,22.194v1.989c0,0.52,0.128,0.916,0.383,1.189
						s0.595,0.41,1.019,0.41c0.383,0,0.711-0.126,0.984-0.379s0.41-0.71,0.41-1.371v-1.839H112.984z"/>
					<path style="stroke:#000000;stroke-width:0.25;stroke-miterlimit:10;" d="M96.843,25.722V24.04h9.331v3.821
						c0,1.09-0.274,1.897-0.823,2.424c-0.55,0.526-1.198,0.789-1.945,0.789c-0.853,0-1.543-0.284-2.071-0.854
						c-0.528-0.569-0.793-1.292-0.793-2.167v-2.331H96.843z M101.984,25.722v1.989c0,0.52,0.128,0.916,0.383,1.189
						s0.595,0.41,1.019,0.41c0.383,0,0.711-0.126,0.984-0.379s0.41-0.71,0.41-1.371v-1.839H101.984z"/>
					<path style="stroke:#000000;stroke-width:0.25;stroke-miterlimit:10;" d="M85.7,31.007c0-1.24,0.465-2.205,1.395-2.896
						s2.078-1.035,3.445-1.035c1.358,0,2.494,0.366,3.407,1.101c0.914,0.733,1.371,1.702,1.371,2.905
						c0,1.212-0.457,2.17-1.371,2.874c-0.913,0.704-2.056,1.057-3.428,1.057c-1.44,0-2.604-0.366-3.49-1.098
						C86.143,33.184,85.7,32.214,85.7,31.007z M87.053,31.021c0,0.605,0.251,1.118,0.752,1.538c0.501,0.419,1.41,0.629,2.728,0.629
						c1.071,0,1.91-0.174,2.52-0.52c0.607-0.347,0.912-0.885,0.912-1.613c0-1.44-1.16-2.16-3.479-2.16
						c-1.126,0-1.979,0.184-2.56,0.55C87.343,29.812,87.053,30.337,87.053,31.021z"/>
					<path style="stroke:#000000;stroke-width:0.25;stroke-miterlimit:10;" d="M74.843,38.369v-1.777l3.835-1.449v-2.365h-3.835
						v-1.682h9.331v4.047c0,1.126-0.254,1.953-0.763,2.481c-0.508,0.529-1.165,0.793-1.972,0.793c-1.198,0-2.023-0.561-2.475-1.682
						L74.843,38.369z M80.025,32.777v2.092c0,0.606,0.128,1.058,0.383,1.354c0.255,0.297,0.606,0.444,1.053,0.444
						c0.41,0,0.742-0.146,0.994-0.438c0.254-0.291,0.38-0.699,0.38-1.224v-2.229H80.025z"/>
					<path style="stroke:#000000;stroke-width:0.25;stroke-miterlimit:10;" d="M63.843,37.885V36.08h7.889v-2.481h1.442v6.768
						h-1.442v-2.481H63.843z"/>
					<path style="stroke:#000000;stroke-width:0.25;stroke-miterlimit:10;" d="M62.174,44.558h-5.995
						c-0.812,0-1.436-0.092-1.873-0.273c-0.438-0.183-0.814-0.534-1.131-1.057c-0.317-0.521-0.476-1.158-0.476-1.91
						c0-0.762,0.137-1.387,0.41-1.877c0.273-0.489,0.648-0.842,1.124-1.056c0.477-0.215,1.084-0.321,1.822-0.321h6.118v1.716h-5.995
						c-0.82,0-1.359,0.172-1.617,0.516c-0.257,0.345-0.386,0.744-0.386,1.2c0,0.523,0.138,0.943,0.413,1.258
						c0.276,0.314,0.806,0.472,1.59,0.472h5.995V44.558z"/>
					<path style="stroke:#000000;stroke-width:0.25;stroke-miterlimit:10;" d="M41.843,48.728v-1.634l5.961-3.541
						c0.091-0.055,0.239-0.144,0.444-0.267c0.091-0.055,0.234-0.139,0.431-0.253h-6.836V41.68h9.331v1.859l-5.496,3.268
						c-0.046,0.027-0.381,0.226-1.005,0.595h6.501v1.326H41.843z"/>
					<path style="stroke:#000000;stroke-width:0.25;stroke-miterlimit:10;" d="M30.843,46.89v-1.682h9.331v1.682H30.843z"/>
					<path style="stroke:#000000;stroke-width:0.25;stroke-miterlimit:10;" d="M19.843,51.997v-1.805h7.889v-2.481h1.442v6.768
						h-1.442v-2.481H19.843z"/>
					<path style="stroke:#000000;stroke-width:0.25;stroke-miterlimit:10;" d="M8.843,56.017v-1.784h3.938l5.394-3.179v2.037
						l-3.849,2.215l3.849,2.119v1.613l-5.394-3.021H8.843z"/>
				</g>
			</g>
			<g>
				<g>
					<path style="fill:#FFFFFF;stroke:#000000;stroke-width:0.25;stroke-miterlimit:10;" d="M117.7,19.423
						c0-1.24,0.465-2.205,1.395-2.896c0.93-0.69,2.078-1.035,3.445-1.035c1.358,0,2.494,0.366,3.407,1.101
						c0.914,0.733,1.371,1.702,1.371,2.905c0,1.212-0.457,2.17-1.371,2.874c-0.913,0.704-2.056,1.057-3.428,1.057
						c-1.44,0-2.604-0.366-3.49-1.098C118.143,21.6,117.7,20.63,117.7,19.423z M119.053,19.437c0,0.605,0.251,1.118,0.752,1.538
						c0.501,0.419,1.41,0.629,2.728,0.629c1.071,0,1.91-0.174,2.52-0.52c0.607-0.347,0.912-0.885,0.912-1.613
						c0-1.44-1.16-2.16-3.479-2.16c-1.126,0-1.979,0.184-2.56,0.55C119.343,18.228,119.053,18.753,119.053,19.437z"/>
					<path style="fill:#FFFFFF;stroke:#000000;stroke-width:0.25;stroke-miterlimit:10;" d="M106.843,21.194v-1.682h9.331v3.821
						c0,1.09-0.274,1.897-0.823,2.424c-0.55,0.526-1.198,0.789-1.945,0.789c-0.853,0-1.543-0.284-2.071-0.854
						c-0.528-0.569-0.793-1.292-0.793-2.167v-2.331H106.843z M111.984,21.194v1.989c0,0.52,0.128,0.916,0.383,1.189
						s0.595,0.41,1.019,0.41c0.383,0,0.711-0.126,0.984-0.379s0.41-0.71,0.41-1.371v-1.839H111.984z"/>
					<path style="fill:#FFFFFF;stroke:#000000;stroke-width:0.25;stroke-miterlimit:10;" d="M95.843,24.722V23.04h9.331v3.821
						c0,1.09-0.274,1.897-0.823,2.424c-0.55,0.526-1.198,0.789-1.945,0.789c-0.853,0-1.543-0.284-2.071-0.854
						c-0.528-0.569-0.793-1.292-0.793-2.167v-2.331H95.843z M100.984,24.722v1.989c0,0.52,0.128,0.916,0.383,1.189
						s0.595,0.41,1.019,0.41c0.383,0,0.711-0.126,0.984-0.379s0.41-0.71,0.41-1.371v-1.839H100.984z"/>
					<path style="fill:#FFFFFF;stroke:#000000;stroke-width:0.25;stroke-miterlimit:10;" d="M84.7,30.007
						c0-1.24,0.465-2.205,1.395-2.896s2.078-1.035,3.445-1.035c1.358,0,2.494,0.366,3.407,1.101
						c0.914,0.733,1.371,1.702,1.371,2.905c0,1.212-0.457,2.17-1.371,2.874c-0.913,0.704-2.056,1.057-3.428,1.057
						c-1.44,0-2.604-0.366-3.49-1.098C85.143,32.184,84.7,31.214,84.7,30.007z M86.053,30.021c0,0.605,0.251,1.118,0.752,1.538
						c0.501,0.419,1.41,0.629,2.728,0.629c1.071,0,1.91-0.174,2.52-0.52c0.607-0.347,0.912-0.885,0.912-1.613
						c0-1.44-1.16-2.16-3.479-2.16c-1.126,0-1.979,0.184-2.56,0.55C86.343,28.812,86.053,29.337,86.053,30.021z"/>
					<path style="fill:#FFFFFF;stroke:#000000;stroke-width:0.25;stroke-miterlimit:10;" d="M73.843,37.369v-1.777l3.835-1.449
						v-2.365h-3.835v-1.682h9.331v4.047c0,1.126-0.254,1.953-0.763,2.481c-0.508,0.529-1.165,0.793-1.972,0.793
						c-1.198,0-2.023-0.561-2.475-1.682L73.843,37.369z M79.025,31.777v2.092c0,0.606,0.128,1.058,0.383,1.354
						c0.255,0.297,0.606,0.444,1.053,0.444c0.41,0,0.742-0.146,0.994-0.438c0.254-0.291,0.38-0.699,0.38-1.224v-2.229H79.025z"/>
					<path style="fill:#FFFFFF;stroke:#000000;stroke-width:0.25;stroke-miterlimit:10;" d="M62.843,36.885V35.08h7.889v-2.481
						h1.442v6.768h-1.442v-2.481H62.843z"/>
					<path style="fill:#FFFFFF;stroke:#000000;stroke-width:0.25;stroke-miterlimit:10;" d="M61.174,43.558h-5.995
						c-0.812,0-1.436-0.092-1.873-0.273c-0.438-0.183-0.814-0.534-1.131-1.057c-0.317-0.521-0.476-1.158-0.476-1.91
						c0-0.762,0.137-1.387,0.41-1.877c0.273-0.489,0.648-0.842,1.124-1.056c0.477-0.215,1.084-0.321,1.822-0.321h6.118v1.716h-5.995
						c-0.82,0-1.359,0.172-1.617,0.516c-0.257,0.345-0.386,0.744-0.386,1.2c0,0.523,0.138,0.943,0.413,1.258
						c0.276,0.314,0.806,0.472,1.59,0.472h5.995V43.558z"/>
					<path style="fill:#FFFFFF;stroke:#000000;stroke-width:0.25;stroke-miterlimit:10;" d="M40.843,47.728v-1.634l5.961-3.541
						c0.091-0.055,0.239-0.144,0.444-0.267c0.091-0.055,0.234-0.139,0.431-0.253h-6.836V40.68h9.331v1.859l-5.496,3.268
						c-0.046,0.027-0.381,0.226-1.005,0.595h6.501v1.326H40.843z"/>
					<path style="fill:#FFFFFF;stroke:#000000;stroke-width:0.25;stroke-miterlimit:10;" d="M29.843,45.89v-1.682h9.331v1.682
						H29.843z"/>
					<path style="fill:#FFFFFF;stroke:#000000;stroke-width:0.25;stroke-miterlimit:10;" d="M18.843,50.997v-1.805h7.889v-2.481
						h1.442v6.768h-1.442v-2.481H18.843z"/>
					<path style="fill:#FFFFFF;stroke:#000000;stroke-width:0.25;stroke-miterlimit:10;" d="M7.843,55.017v-1.784h3.937l5.394-3.179
						v2.037l-3.849,2.215l3.849,2.119v1.613l-5.394-3.021H7.843z"/>
				</g>
			</g>
		</g>
	</g>
</g>
<g id="Layer_1">
</g>
</svg>
