<?xml version="1.0" encoding="iso-8859-1"?>
<!-- Generator: Adobe Illustrator 24.2.0, SVG Export Plug-In . SVG Version: 6.00 Build 0)  -->
<svg version="1.1" xmlns="http://www.w3.org/2000/svg" xmlns:xlink="http://www.w3.org/1999/xlink" x="0px" y="0px"
	 viewBox="0 0 100.2 134" style="enable-background:new 0 0 100.2 134;" xml:space="preserve">
<g id="Oppurtinity3">
	<g>
		<g>
			<g>
				<polygon style="fill:#DDD9D8;" points="99.201,1 0.412,1 54.462,133 99.201,133 				"/>
			</g>
			<g>
				<path style="fill:#1A1A1A;" d="M100.2,134h-46.41L0,0h100.2V134z M55.132,132H98.2V2H1.902L55.132,132z"/>
			</g>
		</g>
		<g>
			<g>
				<g>
					<path style="stroke:#000000;stroke-width:0.25;stroke-miterlimit:10;" d="M76.17,120.657c1.24,0,2.205,0.465,2.895,1.395
						s1.036,2.078,1.036,3.445c0,1.358-0.367,2.494-1.101,3.407c-0.734,0.914-1.702,1.371-2.905,1.371
						c-1.212,0-2.17-0.457-2.875-1.371c-0.704-0.913-1.056-2.056-1.056-3.428c0-1.44,0.366-2.604,1.097-3.49
						C73.993,121.101,74.963,120.657,76.17,120.657z M76.156,122.011c-0.606,0-1.119,0.251-1.538,0.752s-0.629,1.41-0.629,2.728
						c0,1.071,0.173,1.91,0.52,2.52c0.346,0.607,0.884,0.912,1.613,0.912c1.44,0,2.16-1.16,2.16-3.479
						c0-1.126-0.184-1.979-0.55-2.56C77.365,122.301,76.84,122.011,76.156,122.011z"/>
					<path style="stroke:#000000;stroke-width:0.25;stroke-miterlimit:10;" d="M74.399,109.801h1.682v9.331h-3.821
						c-1.089,0-1.897-0.274-2.423-0.823c-0.526-0.55-0.79-1.198-0.79-1.945c0-0.853,0.285-1.543,0.854-2.071
						s1.292-0.793,2.167-0.793h2.331V109.801z M74.399,114.942H72.41c-0.52,0-0.916,0.128-1.189,0.383s-0.41,0.595-0.41,1.019
						c0,0.383,0.126,0.711,0.379,0.984s0.71,0.41,1.371,0.41h1.839V114.942z"/>
					<path style="stroke:#000000;stroke-width:0.25;stroke-miterlimit:10;" d="M70.871,98.801h1.682v9.331h-3.821
						c-1.089,0-1.897-0.274-2.423-0.823c-0.526-0.55-0.79-1.198-0.79-1.945c0-0.853,0.285-1.543,0.854-2.071
						s1.292-0.793,2.167-0.793h2.331V98.801z M70.871,103.942h-1.989c-0.52,0-0.916,0.128-1.189,0.383s-0.41,0.595-0.41,1.019
						c0,0.383,0.126,0.711,0.379,0.984s0.71,0.41,1.371,0.41h1.839V103.942z"/>
					<path style="stroke:#000000;stroke-width:0.25;stroke-miterlimit:10;" d="M65.586,87.657c1.24,0,2.205,0.465,2.895,1.395
						s1.036,2.078,1.036,3.445c0,1.358-0.367,2.494-1.101,3.407c-0.734,0.914-1.702,1.371-2.905,1.371
						c-1.212,0-2.17-0.457-2.875-1.371c-0.704-0.913-1.056-2.056-1.056-3.428c0-1.44,0.366-2.604,1.097-3.49
						C63.409,88.101,64.379,87.657,65.586,87.657z M65.572,89.011c-0.606,0-1.119,0.251-1.538,0.752
						c-0.419,0.501-0.629,1.41-0.629,2.728c0,1.071,0.173,1.91,0.52,2.52c0.346,0.607,0.884,0.912,1.613,0.912
						c1.44,0,2.16-1.16,2.16-3.479c0-1.126-0.184-1.979-0.55-2.56C66.781,89.301,66.256,89.011,65.572,89.011z"/>
					<path style="stroke:#000000;stroke-width:0.25;stroke-miterlimit:10;" d="M58.223,76.801h1.777l1.449,3.835h2.365v-3.835h1.682
						v9.331H61.45c-1.125,0-1.953-0.254-2.481-0.763c-0.529-0.508-0.793-1.165-0.793-1.972c0-1.198,0.561-2.023,1.682-2.475
						L58.223,76.801z M63.815,81.983h-2.092c-0.606,0-1.057,0.128-1.354,0.383s-0.444,0.606-0.444,1.053
						c0,0.41,0.146,0.742,0.438,0.994c0.292,0.254,0.7,0.38,1.224,0.38h2.229V81.983z"/>
					<path style="stroke:#000000;stroke-width:0.25;stroke-miterlimit:10;" d="M58.708,65.801h1.805v7.889h2.481v1.442h-6.768V73.69
						h2.481V65.801z"/>
					<path style="stroke:#000000;stroke-width:0.25;stroke-miterlimit:10;" d="M52.035,64.132v-5.995
						c0-0.812,0.091-1.436,0.273-1.873s0.534-0.814,1.056-1.131c0.522-0.317,1.159-0.476,1.911-0.476
						c0.761,0,1.387,0.137,1.876,0.41s0.842,0.648,1.056,1.124c0.214,0.477,0.321,1.084,0.321,1.822v6.118h-1.716v-5.995
						c0-0.82-0.172-1.359-0.516-1.617c-0.344-0.257-0.744-0.386-1.2-0.386c-0.524,0-0.943,0.138-1.258,0.413
						c-0.314,0.276-0.472,0.806-0.472,1.59v5.995H52.035z"/>
					<path style="stroke:#000000;stroke-width:0.25;stroke-miterlimit:10;" d="M47.865,43.801h1.634l3.541,5.961
						c0.055,0.091,0.144,0.239,0.267,0.444c0.055,0.091,0.139,0.234,0.253,0.431v-6.836h1.354v9.331h-1.859l-3.268-5.496
						c-0.027-0.046-0.226-0.381-0.595-1.005v6.501h-1.326V43.801z"/>
					<path style="stroke:#000000;stroke-width:0.25;stroke-miterlimit:10;" d="M49.703,32.801h1.682v9.331h-1.682V32.801z"/>
					<path style="stroke:#000000;stroke-width:0.25;stroke-miterlimit:10;" d="M44.596,21.801h1.805v7.889h2.481v1.442h-6.768V29.69
						h2.481V21.801z"/>
					<path style="stroke:#000000;stroke-width:0.25;stroke-miterlimit:10;" d="M40.576,10.801h1.784v3.938l3.179,5.394h-2.037
						l-2.215-3.849l-2.119,3.849h-1.613l3.021-5.394V10.801z"/>
				</g>
			</g>
			<g>
				<g>
					<path style="fill:#FFFFFF;stroke:#000000;stroke-width:0.25;stroke-miterlimit:10;" d="M75.17,119.657
						c1.24,0,2.205,0.465,2.895,1.395s1.036,2.078,1.036,3.445c0,1.358-0.367,2.494-1.101,3.407
						c-0.734,0.914-1.702,1.371-2.905,1.371c-1.212,0-2.17-0.457-2.875-1.371c-0.704-0.913-1.056-2.056-1.056-3.428
						c0-1.44,0.366-2.604,1.097-3.49C72.993,120.101,73.963,119.657,75.17,119.657z M75.156,121.011
						c-0.606,0-1.119,0.251-1.538,0.752s-0.629,1.41-0.629,2.728c0,1.071,0.173,1.91,0.52,2.52c0.346,0.607,0.884,0.912,1.613,0.912
						c1.44,0,2.16-1.16,2.16-3.479c0-1.126-0.184-1.979-0.55-2.56C76.365,121.301,75.84,121.011,75.156,121.011z"/>
					<path style="fill:#FFFFFF;stroke:#000000;stroke-width:0.25;stroke-miterlimit:10;" d="M73.399,108.801h1.682v9.331h-3.821
						c-1.089,0-1.897-0.274-2.423-0.823c-0.526-0.55-0.79-1.198-0.79-1.945c0-0.853,0.285-1.543,0.854-2.071
						s1.292-0.793,2.167-0.793h2.331V108.801z M73.399,113.942H71.41c-0.52,0-0.916,0.128-1.189,0.383s-0.41,0.595-0.41,1.019
						c0,0.383,0.126,0.711,0.379,0.984s0.71,0.41,1.371,0.41h1.839V113.942z"/>
					<path style="fill:#FFFFFF;stroke:#000000;stroke-width:0.25;stroke-miterlimit:10;" d="M69.871,97.801h1.682v9.331h-3.821
						c-1.089,0-1.897-0.274-2.423-0.823c-0.526-0.55-0.79-1.198-0.79-1.945c0-0.853,0.285-1.543,0.854-2.071
						s1.292-0.793,2.167-0.793h2.331V97.801z M69.871,102.942h-1.989c-0.52,0-0.916,0.128-1.189,0.383s-0.41,0.595-0.41,1.019
						c0,0.383,0.126,0.711,0.379,0.984s0.71,0.41,1.371,0.41h1.839V102.942z"/>
					<path style="fill:#FFFFFF;stroke:#000000;stroke-width:0.25;stroke-miterlimit:10;" d="M64.586,86.657
						c1.24,0,2.205,0.465,2.895,1.395s1.036,2.078,1.036,3.445c0,1.358-0.367,2.494-1.101,3.407
						c-0.734,0.914-1.702,1.371-2.905,1.371c-1.212,0-2.17-0.457-2.875-1.371c-0.704-0.913-1.056-2.056-1.056-3.428
						c0-1.44,0.366-2.604,1.097-3.49C62.409,87.101,63.379,86.657,64.586,86.657z M64.572,88.011c-0.606,0-1.119,0.251-1.538,0.752
						s-0.629,1.41-0.629,2.728c0,1.071,0.173,1.91,0.52,2.52c0.346,0.607,0.884,0.912,1.613,0.912c1.44,0,2.16-1.16,2.16-3.479
						c0-1.126-0.184-1.979-0.55-2.56C65.781,88.301,65.256,88.011,64.572,88.011z"/>
					<path style="fill:#FFFFFF;stroke:#000000;stroke-width:0.25;stroke-miterlimit:10;" d="M57.223,75.801h1.777l1.449,3.835h2.365
						v-3.835h1.682v9.331H60.45c-1.125,0-1.953-0.254-2.481-0.763c-0.529-0.508-0.793-1.165-0.793-1.972
						c0-1.198,0.561-2.023,1.682-2.475L57.223,75.801z M62.815,80.983h-2.092c-0.606,0-1.057,0.128-1.354,0.383
						s-0.444,0.606-0.444,1.053c0,0.41,0.146,0.742,0.438,0.994c0.292,0.254,0.7,0.38,1.224,0.38h2.229V80.983z"/>
					<path style="fill:#FFFFFF;stroke:#000000;stroke-width:0.25;stroke-miterlimit:10;" d="M57.708,64.801h1.805v7.889h2.481v1.442
						h-6.768V72.69h2.481V64.801z"/>
					<path style="fill:#FFFFFF;stroke:#000000;stroke-width:0.25;stroke-miterlimit:10;" d="M51.035,63.132v-5.995
						c0-0.812,0.091-1.436,0.273-1.873s0.534-0.814,1.056-1.131c0.522-0.317,1.159-0.476,1.911-0.476
						c0.761,0,1.387,0.137,1.876,0.41s0.842,0.648,1.056,1.124c0.214,0.477,0.321,1.084,0.321,1.822v6.118h-1.716v-5.995
						c0-0.82-0.172-1.359-0.516-1.617c-0.344-0.257-0.744-0.386-1.2-0.386c-0.524,0-0.943,0.138-1.258,0.413
						c-0.314,0.276-0.472,0.806-0.472,1.59v5.995H51.035z"/>
					<path style="fill:#FFFFFF;stroke:#000000;stroke-width:0.25;stroke-miterlimit:10;" d="M46.865,42.801h1.634l3.541,5.961
						c0.055,0.091,0.144,0.239,0.267,0.444c0.055,0.091,0.139,0.234,0.253,0.431v-6.836h1.354v9.331h-1.859l-3.268-5.496
						c-0.027-0.046-0.226-0.381-0.595-1.005v6.501h-1.326V42.801z"/>
					<path style="fill:#FFFFFF;stroke:#000000;stroke-width:0.25;stroke-miterlimit:10;" d="M48.703,31.801h1.682v9.331h-1.682
						V31.801z"/>
					<path style="fill:#FFFFFF;stroke:#000000;stroke-width:0.25;stroke-miterlimit:10;" d="M43.596,20.801h1.805v7.889h2.481v1.442
						h-6.768V28.69h2.481V20.801z"/>
					<path style="fill:#FFFFFF;stroke:#000000;stroke-width:0.25;stroke-miterlimit:10;" d="M39.576,9.801h1.784v3.938l3.179,5.394
						h-2.037l-2.215-3.849l-2.119,3.849h-1.613l3.021-5.394V9.801z"/>
				</g>
			</g>
		</g>
	</g>
</g>
<g id="Layer_1">
</g>
</svg>
