<?xml version="1.0" encoding="iso-8859-1"?>
<!-- Generator: Adobe Illustrator 24.2.0, SVG Export Plug-In . SVG Version: 6.00 Build 0)  -->
<svg version="1.1" xmlns="http://www.w3.org/2000/svg" xmlns:xlink="http://www.w3.org/1999/xlink" x="0px" y="0px"
	 viewBox="0 0 100.313 134.067" style="enable-background:new 0 0 100.313 134.067;" xml:space="preserve">
<g id="Opportunity1">
	<g>
		<g>
			<g>
				<polygon style="fill:#DDD9D8;" points="99.313,133.001 0,133.067 54.364,1.05 99.313,1.001 				"/>
			</g>
			<g>
				<path style="fill:#1A1A1A;" d="M0.67,134.067L53.694,0.051L100.313,0v134L0.67,134.067z M55.034,2.049L1.494,132.065
					l96.819-0.063v-130L55.034,2.049z"/>
			</g>
		</g>
		<g>
			<g>
				<g>
					<path style="stroke:#000000;stroke-width:0.25;stroke-miterlimit:10;" d="M58.979,18.899c-1.24,0-2.205-0.465-2.895-1.395
						s-1.036-2.078-1.036-3.445c0-1.358,0.367-2.494,1.101-3.407c0.734-0.914,1.702-1.371,2.905-1.371
						c1.212,0,2.17,0.457,2.875,1.371c0.704,0.913,1.056,2.056,1.056,3.428c0,1.44-0.366,2.604-1.097,3.49
						C61.156,18.455,60.186,18.899,58.979,18.899z M58.992,17.545c0.606,0,1.119-0.251,1.538-0.752s0.629-1.41,0.629-2.728
						c0-1.071-0.173-1.91-0.52-2.52c-0.346-0.607-0.884-0.912-1.613-0.912c-1.44,0-2.16,1.16-2.16,3.479
						c0,1.126,0.184,1.979,0.55,2.56C57.783,17.255,58.309,17.545,58.992,17.545z"/>
					<path style="stroke:#000000;stroke-width:0.25;stroke-miterlimit:10;" d="M60.75,29.755h-1.682v-9.331h3.821
						c1.089,0,1.897,0.274,2.423,0.823c0.526,0.55,0.79,1.198,0.79,1.945c0,0.853-0.285,1.543-0.854,2.071s-1.292,0.793-2.167,0.793
						H60.75V29.755z M60.75,24.614h1.989c0.52,0,0.916-0.128,1.189-0.383s0.41-0.595,0.41-1.019c0-0.383-0.126-0.711-0.379-0.984
						s-0.71-0.41-1.371-0.41H60.75V24.614z"/>
					<path style="stroke:#000000;stroke-width:0.25;stroke-miterlimit:10;" d="M64.278,40.755h-1.682v-9.331h3.821
						c1.089,0,1.897,0.274,2.423,0.823c0.526,0.55,0.79,1.198,0.79,1.945c0,0.853-0.285,1.543-0.854,2.071s-1.292,0.793-2.167,0.793
						h-2.331V40.755z M64.278,35.614h1.989c0.52,0,0.916-0.128,1.189-0.383s0.41-0.595,0.41-1.019c0-0.383-0.126-0.711-0.379-0.984
						s-0.71-0.41-1.371-0.41h-1.839V35.614z"/>
					<path style="stroke:#000000;stroke-width:0.25;stroke-miterlimit:10;" d="M69.563,51.899c-1.24,0-2.205-0.465-2.895-1.395
						s-1.036-2.078-1.036-3.445c0-1.358,0.367-2.494,1.101-3.407c0.734-0.914,1.702-1.371,2.905-1.371
						c1.212,0,2.17,0.457,2.875,1.371c0.704,0.913,1.056,2.056,1.056,3.428c0,1.44-0.366,2.604-1.097,3.49
						C71.74,51.455,70.77,51.899,69.563,51.899z M69.576,50.545c0.606,0,1.119-0.251,1.538-0.752s0.629-1.41,0.629-2.728
						c0-1.071-0.173-1.91-0.52-2.52c-0.346-0.607-0.884-0.912-1.613-0.912c-1.44,0-2.16,1.16-2.16,3.479
						c0,1.126,0.184,1.979,0.55,2.56C68.367,50.255,68.893,50.545,69.576,50.545z"/>
					<path style="stroke:#000000;stroke-width:0.25;stroke-miterlimit:10;" d="M76.925,62.755h-1.777l-1.449-3.835h-2.365v3.835
						h-1.682v-9.331h4.047c1.125,0,1.953,0.254,2.481,0.763c0.529,0.508,0.793,1.165,0.793,1.972c0,1.198-0.561,2.023-1.682,2.475
						L76.925,62.755z M71.334,57.573h2.092c0.606,0,1.057-0.128,1.354-0.383s0.444-0.606,0.444-1.053
						c0-0.41-0.146-0.742-0.438-0.994c-0.292-0.254-0.7-0.38-1.224-0.38h-2.229V57.573z"/>
					<path style="stroke:#000000;stroke-width:0.25;stroke-miterlimit:10;" d="M76.441,73.755h-1.805v-7.889h-2.481v-1.442h6.768
						v1.442h-2.481V73.755z"/>
					<path style="stroke:#000000;stroke-width:0.25;stroke-miterlimit:10;" d="M83.113,75.424v5.995
						c0,0.812-0.091,1.436-0.273,1.873s-0.534,0.814-1.056,1.131c-0.522,0.317-1.159,0.476-1.911,0.476
						c-0.761,0-1.387-0.137-1.876-0.41s-0.842-0.648-1.056-1.124c-0.214-0.477-0.321-1.084-0.321-1.822v-6.118h1.716v5.995
						c0,0.82,0.172,1.359,0.516,1.617c0.344,0.257,0.744,0.386,1.2,0.386c0.524,0,0.943-0.138,1.258-0.413
						c0.314-0.276,0.472-0.806,0.472-1.59v-5.995H83.113z"/>
					<path style="stroke:#000000;stroke-width:0.25;stroke-miterlimit:10;" d="M87.284,95.755H85.65l-3.541-5.961
						c-0.055-0.091-0.144-0.239-0.267-0.444c-0.055-0.091-0.139-0.234-0.253-0.431v6.836h-1.354v-9.331h1.859l3.268,5.496
						c0.027,0.046,0.226,0.381,0.595,1.005v-6.501h1.326V95.755z"/>
					<path style="stroke:#000000;stroke-width:0.25;stroke-miterlimit:10;" d="M85.446,106.755h-1.682v-9.331h1.682V106.755z"/>
					<path style="stroke:#000000;stroke-width:0.25;stroke-miterlimit:10;" d="M90.553,117.755h-1.805v-7.889h-2.481v-1.442h6.768
						v1.442h-2.481V117.755z"/>
					<path style="stroke:#000000;stroke-width:0.25;stroke-miterlimit:10;" d="M94.573,128.755h-1.784v-3.938l-3.179-5.394h2.037
						l2.215,3.849l2.119-3.849h1.613l-3.021,5.394V128.755z"/>
				</g>
			</g>
			<g>
				<g>
					<path style="fill:#FFFFFF;stroke:#000000;stroke-width:0.25;stroke-miterlimit:10;" d="M57.979,17.899
						c-1.24,0-2.205-0.465-2.895-1.395s-1.036-2.078-1.036-3.445c0-1.358,0.367-2.494,1.101-3.407
						c0.734-0.914,1.702-1.371,2.905-1.371c1.212,0,2.17,0.457,2.875,1.371c0.704,0.913,1.056,2.056,1.056,3.428
						c0,1.44-0.366,2.604-1.097,3.49C60.156,17.455,59.186,17.899,57.979,17.899z M57.992,16.545c0.606,0,1.119-0.251,1.538-0.752
						s0.629-1.41,0.629-2.728c0-1.071-0.173-1.91-0.52-2.52c-0.346-0.607-0.884-0.912-1.613-0.912c-1.44,0-2.16,1.16-2.16,3.479
						c0,1.126,0.184,1.979,0.55,2.56C56.783,16.255,57.309,16.545,57.992,16.545z"/>
					<path style="fill:#FFFFFF;stroke:#000000;stroke-width:0.25;stroke-miterlimit:10;" d="M59.75,28.755h-1.682v-9.331h3.821
						c1.089,0,1.897,0.274,2.423,0.823c0.526,0.55,0.79,1.198,0.79,1.945c0,0.853-0.285,1.543-0.854,2.071s-1.292,0.793-2.167,0.793
						H59.75V28.755z M59.75,23.614h1.989c0.52,0,0.916-0.128,1.189-0.383s0.41-0.595,0.41-1.019c0-0.383-0.126-0.711-0.379-0.984
						s-0.71-0.41-1.371-0.41H59.75V23.614z"/>
					<path style="fill:#FFFFFF;stroke:#000000;stroke-width:0.25;stroke-miterlimit:10;" d="M63.278,39.755h-1.682v-9.331h3.821
						c1.089,0,1.897,0.274,2.423,0.823c0.526,0.55,0.79,1.198,0.79,1.945c0,0.853-0.285,1.543-0.854,2.071s-1.292,0.793-2.167,0.793
						h-2.331V39.755z M63.278,34.614h1.989c0.52,0,0.916-0.128,1.189-0.383s0.41-0.595,0.41-1.019c0-0.383-0.126-0.711-0.379-0.984
						c-0.253-0.273-0.71-0.41-1.371-0.41h-1.839V34.614z"/>
					<path style="fill:#FFFFFF;stroke:#000000;stroke-width:0.25;stroke-miterlimit:10;" d="M68.563,50.899
						c-1.24,0-2.205-0.465-2.895-1.395s-1.036-2.078-1.036-3.445c0-1.358,0.367-2.494,1.101-3.407
						c0.734-0.914,1.702-1.371,2.905-1.371c1.212,0,2.17,0.457,2.875,1.371c0.704,0.913,1.056,2.056,1.056,3.428
						c0,1.44-0.366,2.604-1.097,3.49C70.74,50.455,69.77,50.899,68.563,50.899z M68.576,49.545c0.606,0,1.119-0.251,1.538-0.752
						s0.629-1.41,0.629-2.728c0-1.071-0.173-1.91-0.52-2.52c-0.346-0.607-0.884-0.912-1.613-0.912c-1.44,0-2.16,1.16-2.16,3.479
						c0,1.126,0.184,1.979,0.55,2.56C67.367,49.255,67.893,49.545,68.576,49.545z"/>
					<path style="fill:#FFFFFF;stroke:#000000;stroke-width:0.25;stroke-miterlimit:10;" d="M75.925,61.755h-1.777l-1.449-3.835
						h-2.365v3.835h-1.682v-9.331h4.047c1.125,0,1.953,0.254,2.481,0.763c0.529,0.508,0.793,1.165,0.793,1.972
						c0,1.198-0.561,2.023-1.682,2.475L75.925,61.755z M70.334,56.573h2.092c0.606,0,1.057-0.128,1.354-0.383
						s0.444-0.606,0.444-1.053c0-0.41-0.146-0.742-0.438-0.994c-0.292-0.254-0.7-0.38-1.224-0.38h-2.229V56.573z"/>
					<path style="fill:#FFFFFF;stroke:#000000;stroke-width:0.25;stroke-miterlimit:10;" d="M75.441,72.755h-1.805v-7.889h-2.481
						v-1.442h6.768v1.442h-2.481V72.755z"/>
					<path style="fill:#FFFFFF;stroke:#000000;stroke-width:0.25;stroke-miterlimit:10;" d="M82.113,74.424v5.995
						c0,0.812-0.091,1.436-0.273,1.873s-0.534,0.814-1.056,1.131c-0.522,0.317-1.159,0.476-1.911,0.476
						c-0.761,0-1.387-0.137-1.876-0.41s-0.842-0.648-1.056-1.124c-0.214-0.477-0.321-1.084-0.321-1.822v-6.118h1.716v5.995
						c0,0.82,0.172,1.359,0.516,1.617c0.344,0.257,0.744,0.386,1.2,0.386c0.524,0,0.943-0.138,1.258-0.413
						c0.314-0.276,0.472-0.806,0.472-1.59v-5.995H82.113z"/>
					<path style="fill:#FFFFFF;stroke:#000000;stroke-width:0.25;stroke-miterlimit:10;" d="M86.284,94.755H84.65l-3.541-5.961
						c-0.055-0.091-0.144-0.239-0.267-0.444c-0.055-0.091-0.139-0.234-0.253-0.431v6.836h-1.354v-9.331h1.859l3.268,5.496
						c0.027,0.046,0.226,0.381,0.595,1.005v-6.501h1.326V94.755z"/>
					<path style="fill:#FFFFFF;stroke:#000000;stroke-width:0.25;stroke-miterlimit:10;" d="M84.446,105.755h-1.682v-9.331h1.682
						V105.755z"/>
					<path style="fill:#FFFFFF;stroke:#000000;stroke-width:0.25;stroke-miterlimit:10;" d="M89.553,116.755h-1.805v-7.889h-2.481
						v-1.442h6.768v1.442h-2.481V116.755z"/>
					<path style="fill:#FFFFFF;stroke:#000000;stroke-width:0.25;stroke-miterlimit:10;" d="M93.573,127.755h-1.784v-3.938
						l-3.179-5.394h2.037l2.215,3.849l2.119-3.849h1.613l-3.021,5.394V127.755z"/>
				</g>
			</g>
		</g>
	</g>
</g>
<g id="Layer_1">
</g>
</svg>
