<?xml version="1.0" encoding="iso-8859-1"?>
<!-- Generator: Adobe Illustrator 24.2.0, SVG Export Plug-In . SVG Version: 6.00 Build 0)  -->
<svg version="1.1" xmlns="http://www.w3.org/2000/svg" xmlns:xlink="http://www.w3.org/1999/xlink" x="0px" y="0px"
	 viewBox="0 0 116.4 186" style="enable-background:new 0 0 116.4 186;" xml:space="preserve">
<g id="RiskCards">
	<g>
		<g>
			<rect x="1" y="1" style="fill:#FFFFFF;" width="114.4" height="184"/>
			<path d="M116.4,186H0V0h116.4V186z M2,184h112.4V2H2V184z"/>
		</g>
		<g>
			<path d="M54.051,161.812c-0.644-1.632-0.92-2.939-0.827-3.923s0.596-2.143,1.508-3.477c1.199-1.752,1.809-3.127,1.826-4.125
				s-0.353-1.909-1.112-2.735c-0.203-0.236-0.234-0.426-0.091-0.569s0.344-0.088,0.597,0.165c2.295,2.295,3.611,3.764,3.947,4.402
				s-0.14,1.841-1.426,3.604c-1.263,1.704-2.115,3.02-2.558,3.946c-0.443,0.926-0.583,1.837-0.418,2.73
				c0.163,0.894,0.807,1.902,1.93,3.025c0.426,0.426,0.956,0.864,1.586,1.314c0.558-0.474,1.113-0.99,1.67-1.547
				c2.103-2.103,3.436-3.492,3.997-4.167c0.56-0.675,0.835-1.3,0.826-1.873c-0.007-0.573-0.344-1.209-1.009-1.905
				c-0.286-0.304-0.362-0.522-0.228-0.657c0.16-0.16,0.421-0.06,0.781,0.301l6.087,6.087c0.353,0.353,0.448,0.608,0.288,0.769
				c-0.143,0.143-0.354,0.076-0.633-0.203c-0.623-0.623-1.148-0.961-1.58-1.016c-0.43-0.053-0.913,0.05-1.45,0.308
				s-1.325,0.907-2.365,1.947l-2.481,2.53l-3.834,3.809c-1.949,1.949-3.196,3.284-3.74,4c-0.545,0.717-0.815,1.294-0.812,1.733
				c0.005,0.438,0.348,1.121,1.027,2.047c0.147,0.196,0.165,0.353,0.05,0.468c-0.131,0.131-0.369,0.023-0.713-0.32l-7.44-7.12
				c-2.008-2.008-3.08-3.85-3.216-5.526c-0.136-1.675,0.354-3.07,1.468-4.185c0.704-0.704,1.529-1.166,2.476-1.382
				c0.947-0.217,1.801-0.207,2.563,0.031S52.609,161.04,54.051,161.812z M58.397,166.785c-1.605-1.541-2.896-2.611-3.873-3.209
				c-0.976-0.599-2.06-0.854-3.252-0.77c-1.192,0.087-2.228,0.567-3.105,1.445c-0.926,0.926-1.426,2.041-1.499,3.345
				c-0.074,1.303,0.565,2.632,1.918,3.984c0.737,0.737,1.651,1.454,2.741,2.151c2.354-2.155,4.198-3.901,5.534-5.237
				C57.321,168.035,57.833,167.465,58.397,166.785z"/>
			<path d="M38.715,162.423l-2.193-2.291l-3.485-3.388c-0.411-0.411-0.534-0.698-0.37-0.862c0.123-0.123,0.311-0.09,0.564,0.098
				c1.025,0.795,1.921,1.036,2.688,0.721c0.766-0.316,2.88-2.204,6.339-5.663c1.271-1.271,2.668-2.734,4.192-4.39
				c1.525-1.656,2.402-2.682,2.632-3.075c0.23-0.393,0.328-0.803,0.295-1.229c-0.032-0.427-0.319-0.993-0.86-1.696
				c-0.18-0.23-0.204-0.411-0.073-0.542c0.147-0.147,0.314-0.127,0.504,0.063l3.031,3.08l2.636,2.562
				c0.288,0.288,0.35,0.514,0.186,0.678c-0.172,0.172-0.372,0.144-0.603-0.087c-0.778-0.745-1.479-0.938-2.103-0.577
				s-2.259,1.864-4.907,4.513c-2.558,2.558-4.604,4.65-6.141,6.277s-2.372,2.728-2.503,3.302c-0.132,0.573,0.066,1.213,0.59,1.918
				c0.189,0.271,0.21,0.479,0.062,0.628C39.047,162.608,38.888,162.596,38.715,162.423z"/>
			<path d="M23.385,145.101c-0.443,0-0.82,0.082-1.132,0.245c-0.263,0.132-0.455,0.137-0.578,0.014
				c-0.065-0.065-0.098-0.182-0.099-0.345c0.239-0.353,0.75-1.029,1.538-2.028l2.017-2.606c0.147-0.147,0.312-0.132,0.491,0.048
				c0.099,0.099,0.104,0.268,0.013,0.505c-0.639,1.508-0.889,3.045-0.75,4.611c0.147,1.558,0.725,2.84,1.733,3.849
				c0.992,0.992,2.04,1.44,3.143,1.346c1.102-0.094,1.989-0.478,2.661-1.149c0.82-0.82,1.173-1.722,1.059-2.705
				c-0.115-0.984-0.755-2.606-1.919-4.87c-0.868-1.655-1.433-2.981-1.69-3.978c-0.259-0.995-0.269-2.038-0.031-3.129
				c0.238-1.09,0.739-2.017,1.501-2.778c1.296-1.296,2.991-1.919,5.09-1.871c2.1,0.051,3.928,0.854,5.484,2.41
				c1.402,1.402,2.374,3.251,2.914,5.547c0.509,0.05,0.959-0.041,1.353-0.271c0.329-0.196,0.566-0.221,0.714-0.073
				c0.131,0.131,0.057,0.393-0.222,0.786s-1.75,2.104-4.414,5.129c-0.131,0.064-0.267,0.028-0.406-0.111
				c-0.123-0.123-0.131-0.313-0.024-0.565c1.91-4.436,1.733-7.784-0.529-10.047c-1.123-1.123-2.34-1.664-3.65-1.623
				c-1.313,0.041-2.406,0.5-3.284,1.378c-0.606,0.606-0.993,1.333-1.162,2.182c-0.168,0.848-0.127,1.709,0.123,2.582
				c0.251,0.874,0.789,2.109,1.618,3.708c1.057,2.057,1.644,3.591,1.757,4.599c0.115,1.008,0.023,1.924-0.277,2.748
				c-0.298,0.823-0.71,1.499-1.234,2.023c-1.09,1.09-2.552,1.563-4.385,1.42c-1.831-0.144-3.465-0.932-4.9-2.367
				c-0.54-0.54-1.021-1.195-1.443-1.961C24.038,146.984,23.68,146.101,23.385,145.101z"/>
			<path d="M22.847,130.496c-1.327-0.263-2.462-0.384-3.4-0.363c-0.938,0.021-2.426,0.07-4.464,0.147
				c-2.036,0.079-3.325,0.194-3.866,0.351s-0.89,0.312-1.046,0.468c-0.188,0.188-0.249,0.468-0.184,0.836s0.222,0.726,0.467,1.07
				c0.278,0.376,0.349,0.634,0.209,0.773c-0.147,0.147-0.356,0.087-0.627-0.184c-0.058-0.058-0.151-0.144-0.283-0.258
				c-0.319-0.288-1.238-1.189-2.754-2.705c-1.042-1.042-1.756-1.777-2.146-2.208s-0.519-0.712-0.388-0.843
				c0.14-0.14,0.341-0.11,0.603,0.087c0.868,0.655,1.737,1.11,2.606,1.364s2.462,0.403,4.777,0.449
				c2.316,0.045,4.434-0.039,6.352-0.252c-0.948-0.948-1.612-1.88-1.992-2.793c-0.379-0.912-0.457-1.91-0.234-2.992
				c0.224-1.081,0.96-2.558,2.209-4.428c2.074-3.162,2.471-5.5,1.187-7.013c-0.288-0.337-0.36-0.577-0.217-0.721
				c0.12-0.12,0.253-0.106,0.401,0.042l1.106,1.155c1.672,1.672,2.648,2.615,2.925,2.829c-0.13,0.935-0.396,1.72-0.792,2.354
				c-0.397,0.636-1.142,1.704-2.232,3.203c-0.951,1.313-1.699,2.654-2.244,4.027s-0.379,2.498,0.498,3.375
				c0.583,0.583,1.376,0.995,2.38,1.237c1.004,0.24,1.647,0.319,1.931,0.233c0.282-0.087,1.415-1.122,3.399-3.106
				c1.394-1.394,2.211-2.297,2.453-2.711s0.312-0.86,0.209-1.34s-0.375-0.99-0.817-1.53c-0.263-0.329-0.319-0.565-0.172-0.713
				c0.14-0.14,0.311-0.107,0.516,0.098l0.14,0.155c0.219,0.24,1.05,1.083,2.492,2.525c1.738,1.738,2.738,2.705,3.001,2.901
				c0.13,0.099,0.226,0.177,0.282,0.233c0.189,0.189,0.209,0.357,0.062,0.505c-0.131,0.131-0.328,0.098-0.59-0.098
				c-0.491-0.378-0.938-0.583-1.341-0.616c-0.401-0.032-0.754,0.041-1.058,0.222c-0.302,0.181-1.195,0.908-2.674,2.184
				c-1.48,1.273-2.679,2.37-3.597,3.288c-1.214,1.214-2.229,2.255-3.05,3.124c-0.819,0.868-1.691,1.838-2.613,2.908
				s-1.438,1.75-1.549,2.041s-0.14,0.573-0.087,0.849c0.054,0.274,0.348,0.752,0.88,1.433c0.181,0.229,0.208,0.405,0.085,0.528
				c-0.18,0.18-0.459,0.082-0.836-0.295l-1.007-0.983l-4.416-4.316c-0.221-0.221-0.264-0.4-0.127-0.537
				c0.08-0.08,0.175-0.101,0.285-0.063s0.377,0.221,0.802,0.55c0.435,0.337,0.723,0.531,0.866,0.585
				c0.145,0.053,0.35,0.045,0.615-0.025c0.267-0.069,0.593-0.296,0.979-0.682C17.688,135.927,19.716,133.809,22.847,130.496z"/>
		</g>
		<g>
			<path d="M86.667,81.231c-0.853-0.05-1.382-0.038-1.587,0.036c-0.28,0.114-0.496,0.094-0.651-0.062
				c-0.165-0.165-0.106-0.401,0.172-0.713l4.02-4.563c0.246-0.246,0.406-0.385,0.48-0.418s0.16,0,0.259,0.099
				c0.131,0.131,0.094,0.447-0.112,0.946c-0.765,1.849-1.08,3.672-0.945,5.473c0.147,1.804,0.79,3.274,1.93,4.414
				c1.001,1.001,2.24,1.596,3.721,1.789c1.479,0.192,3.047-0.076,4.702-0.806c1.657-0.729,3.169-1.778,4.538-3.147
				c2.328-2.328,3.578-4.861,3.75-7.6s-0.533-4.898-2.117-6.482c-1.073-1.073-2.401-1.722-3.984-1.943
				c-1.582-0.221-3.05-0.114-4.402,0.32c-0.368,0.122-0.618,0.118-0.75-0.014c-0.18-0.18-0.173-0.368,0.024-0.565
				c0.237-0.237,1.069-0.446,2.496-0.627s2.896-0.014,4.409,0.499c1.512,0.512,2.852,1.352,4.016,2.516
				c1.369,1.369,2.322,3.02,2.859,4.949c0.537,1.932,0.552,3.872,0.044,5.823s-1.591,3.755-3.246,5.41
				c-1.624,1.624-3.438,2.736-5.442,3.339c-2.005,0.601-4.003,0.628-5.997,0.077c-1.992-0.551-3.667-1.503-5.021-2.856
				c-0.722-0.722-1.348-1.574-1.878-2.554C87.424,83.592,86.996,82.479,86.667,81.231z"/>
			<path d="M75.843,73.089l-0.568-0.568c0.962-2.794,2.908-7.266,5.84-13.418c1.872-3.948,2.945-6.445,3.218-7.491
				c0.273-1.047,0.021-2.034-0.762-2.963c-0.246-0.295-0.291-0.521-0.136-0.677c0.115-0.115,0.241-0.103,0.381,0.037l0.16,0.184
				c0.689,0.82,1.615,1.813,2.779,2.977c1.787,1.787,2.963,2.906,3.528,3.356c0.254,0.254,0.309,0.455,0.161,0.603
				c-0.106,0.106-0.268,0.078-0.48-0.086c-0.762-0.631-1.363-0.994-1.802-1.089c-0.438-0.094-0.841,0.044-1.21,0.413
				c-0.353,0.353-0.984,1.482-1.896,3.392l-1.391,2.84c0.427,0.427,2.357,2.309,5.793,5.645c3.124-1.417,4.982-2.422,5.576-3.016
				c0.502-0.502,0.664-1.086,0.485-1.751c-0.18-0.666-0.462-1.216-0.848-1.65c-0.278-0.327-0.339-0.571-0.18-0.73
				c0.064-0.064,0.174-0.074,0.328-0.031c1.254,1.369,2.017,2.188,2.287,2.459c1.377,1.377,2.32,2.287,2.828,2.729
				c0.263,0.263,0.319,0.468,0.172,0.615c-0.131,0.131-0.327,0.099-0.59-0.098c-1.065-0.819-2.427-0.901-4.082-0.246
				c-1.656,0.656-4.514,1.955-8.572,3.896C83.166,70.182,79.493,71.737,75.843,73.089z M79.014,70.898
				c2.321-0.794,5.475-2.166,9.461-4.115c-0.886-0.804-1.513-1.39-1.882-1.759l-3.395-3.518c-0.549,1.156-1.254,2.713-2.116,4.671
				C80.073,68.53,79.383,70.104,79.014,70.898z"/>
			<path d="M65.762,46.666c-0.645-1.633-0.92-2.939-0.827-3.923s0.596-2.143,1.508-3.477c1.199-1.752,1.808-3.128,1.826-4.125
				c0.018-0.998-0.353-1.909-1.112-2.735c-0.204-0.237-0.235-0.427-0.092-0.57s0.344-0.088,0.598,0.166
				c2.295,2.295,3.611,3.764,3.947,4.402s-0.14,1.841-1.427,3.603c-1.263,1.704-2.114,3.021-2.558,3.946
				c-0.442,0.927-0.582,1.838-0.418,2.73c0.164,0.895,0.808,1.903,1.93,3.025c0.427,0.427,0.956,0.864,1.587,1.315
				c0.557-0.475,1.113-0.99,1.67-1.547c2.103-2.103,3.436-3.492,3.996-4.168c0.56-0.675,0.836-1.299,0.827-1.872
				c-0.008-0.574-0.345-1.21-1.009-1.905c-0.287-0.305-0.362-0.522-0.228-0.657c0.16-0.16,0.42-0.061,0.78,0.3l6.087,6.087
				c0.353,0.353,0.448,0.608,0.288,0.769c-0.143,0.143-0.354,0.076-0.632-0.202c-0.623-0.623-1.149-0.962-1.58-1.016
				s-0.914,0.049-1.451,0.307c-0.536,0.259-1.325,0.907-2.365,1.947l-2.48,2.531l-3.834,3.809c-1.949,1.949-3.197,3.283-3.741,3.999
				c-0.544,0.718-0.814,1.295-0.811,1.734c0.005,0.438,0.347,1.12,1.027,2.047c0.147,0.196,0.164,0.352,0.049,0.467
				c-0.131,0.131-0.368,0.024-0.713-0.32l-7.439-7.119c-2.009-2.009-3.081-3.851-3.216-5.526c-0.137-1.676,0.353-3.071,1.467-4.186
				c0.704-0.704,1.53-1.165,2.476-1.382c0.947-0.217,1.802-0.206,2.563,0.032S64.32,45.895,65.762,46.666z M70.108,51.64
				c-1.606-1.542-2.897-2.612-3.873-3.209c-0.976-0.599-2.06-0.854-3.252-0.77c-1.193,0.086-2.228,0.567-3.105,1.445
				c-0.926,0.926-1.427,2.04-1.499,3.345c-0.074,1.303,0.564,2.631,1.918,3.984c0.737,0.737,1.651,1.454,2.741,2.151
				c2.354-2.156,4.197-3.902,5.533-5.238C69.031,52.889,69.544,52.319,70.108,51.64z"/>
			<path d="M46.465,43.047l-2.581-2.483c-3.206-3.206-4.849-6.407-4.932-9.604c-0.082-3.197,1.062-5.981,3.431-8.351
				c1.681-1.681,3.535-2.748,5.564-3.203c2.028-0.454,3.949-0.408,5.762,0.143c1.811,0.549,3.7,1.808,5.667,3.774
				c0.443,0.443,0.98,1.029,1.611,1.758c1.115,1.313,1.746,2.041,1.895,2.189c2.688,2.688,4.299,4.242,4.832,4.66
				c0.271,0.271,0.337,0.474,0.199,0.611c-0.096,0.096-0.208,0.11-0.338,0.045c-0.131-0.066-0.482-0.322-1.054-0.767
				c-0.747-0.565-1.47-0.765-2.172-0.596c-0.7,0.169-2.221,1.355-4.559,3.563L53.084,41.1c-0.755,0.755-1.432,1.535-2.03,2.339
				c-0.6,0.805-0.891,1.416-0.874,1.833c0.017,0.419,0.226,0.903,0.626,1.452c0.296,0.394,0.374,0.659,0.234,0.799
				c-0.173,0.173-0.345,0.173-0.517,0.001c-0.164-0.164-0.631-0.701-1.402-1.611C48.352,45.002,47.466,44.048,46.465,43.047z
				 M58.774,31.599c1.082-1.082,1.783-1.926,2.103-2.532c0.32-0.607,0.394-1.296,0.221-2.066c-0.171-0.771-0.778-1.677-1.819-2.718
				c-1.492-1.492-3.054-2.349-4.685-2.569c-1.632-0.222-3.293-0.006-4.986,0.645c-1.693,0.652-3.199,1.639-4.519,2.958
				c-1.951,1.951-3.123,4.313-3.518,7.082c-0.394,2.771,0.664,5.41,3.173,7.919c1.115,1.115,1.801,1.729,2.06,1.839
				c0.258,0.111,0.567-0.015,0.928-0.375c0.32-0.32,0.919-0.86,1.797-1.623c1.277-1.115,2.266-1.996,2.962-2.644l3.492-3.271
				C57.614,32.71,58.545,31.828,58.774,31.599z"/>
			<path d="M25.393,20.252c-0.442,0.001-0.819,0.083-1.131,0.246c-0.263,0.132-0.455,0.137-0.578,0.014
				c-0.065-0.065-0.098-0.182-0.099-0.345c0.238-0.354,0.75-1.029,1.537-2.029l2.017-2.606c0.147-0.147,0.312-0.132,0.492,0.049
				c0.099,0.099,0.103,0.267,0.012,0.504c-0.638,1.509-0.888,3.046-0.75,4.611c0.148,1.559,0.726,2.841,1.733,3.849
				c0.993,0.993,2.04,1.44,3.143,1.346c1.103-0.093,1.99-0.477,2.662-1.148c0.82-0.82,1.173-1.722,1.058-2.706
				c-0.114-0.983-0.754-2.605-1.918-4.869c-0.869-1.656-1.433-2.981-1.69-3.978c-0.259-0.995-0.27-2.039-0.031-3.129
				c0.238-1.089,0.738-2.017,1.5-2.779c1.296-1.295,2.992-1.918,5.091-1.87c2.099,0.049,3.927,0.853,5.484,2.41
				c1.402,1.402,2.373,3.25,2.914,5.546c0.508,0.049,0.959-0.041,1.353-0.271c0.328-0.197,0.565-0.222,0.713-0.074
				c0.132,0.132,0.058,0.394-0.221,0.787c-0.279,0.393-1.75,2.104-4.415,5.128c-0.131,0.064-0.266,0.029-0.405-0.11
				c-0.123-0.123-0.131-0.313-0.025-0.566c1.911-4.435,1.734-7.783-0.528-10.046c-1.123-1.123-2.34-1.664-3.651-1.623
				c-1.312,0.042-2.405,0.5-3.283,1.378c-0.606,0.606-0.994,1.333-1.162,2.182c-0.168,0.848-0.127,1.709,0.123,2.582
				s0.789,2.109,1.617,3.707c1.058,2.058,1.644,3.591,1.758,4.6c0.115,1.008,0.023,1.924-0.277,2.748
				c-0.298,0.823-0.711,1.498-1.235,2.022c-1.09,1.09-2.551,1.564-4.384,1.421c-1.831-0.144-3.466-0.933-4.9-2.367
				c-0.541-0.541-1.021-1.195-1.444-1.962C26.047,22.137,25.688,21.253,25.393,20.252z"/>
		</g>
	</g>
</g>
<g id="Layer_1">
</g>
</svg>
