<?xml version="1.0" encoding="iso-8859-1"?>
<!-- Generator: Adobe Illustrator 24.2.0, SVG Export Plug-In . SVG Version: 6.00 Build 0)  -->
<svg version="1.1" xmlns="http://www.w3.org/2000/svg" xmlns:xlink="http://www.w3.org/1999/xlink" x="0px" y="0px"
	 viewBox="0 0 136.855 136.855" style="enable-background:new 0 0 136.855 136.855;" xml:space="preserve">
<g id="SpinnerBase">
	<g>
		<g>
			<g>
				<polygon style="fill:#FFFFFF;" points="96.04,135.09 68.428,68.427 135.09,96.04 				"/>
				<path d="M95.688,136.855L66.58,66.58l70.275,29.109L95.688,136.855z M70.275,70.275l26.116,63.049l36.933-36.934L70.275,70.275z
					"/>
			</g>
			<g>
				<polygon style="fill:#FFFFFF;" points="40.815,135.09 68.428,68.427 96.04,135.09 				"/>
				<path d="M97.537,136.09H39.318l29.109-70.276L97.537,136.09z M42.312,134.09h52.231L68.428,71.041L42.312,134.09z"/>
			</g>
			<g>
				<polygon style="fill:#FFFFFF;" points="1.765,96.04 68.428,68.427 40.815,135.09 				"/>
				<path d="M41.166,136.855L0,95.688L70.275,66.58L41.166,136.855z M3.53,96.391l36.934,36.934l26.116-63.05L3.53,96.391z"/>
			</g>
			<g>
				<polygon style="fill:#FFFFFF;" points="1.765,40.815 68.428,68.427 1.765,96.04 				"/>
				<path d="M0.765,97.536V39.318l70.276,29.109L0.765,97.536z M2.765,42.312v52.231l63.049-26.116L2.765,42.312z"/>
			</g>
			<g>
				<polygon style="fill:#FFFFFF;" points="40.815,1.765 68.428,68.427 1.765,40.815 				"/>
				<path d="M70.275,70.275L0,41.166L41.166,0L70.275,70.275z M3.53,40.464L66.58,66.58L40.464,3.53L3.53,40.464z"/>
			</g>
			<g>
				<polygon style="fill:#FFFFFF;" points="96.04,1.765 68.428,68.427 40.815,1.765 				"/>
				<path d="M68.428,71.041L39.318,0.765h58.219L68.428,71.041z M42.312,2.765l26.116,63.049L94.543,2.765H42.312z"/>
			</g>
			<g>
				<polygon style="fill:#FFFFFF;" points="135.09,40.815 68.428,68.427 96.04,1.765 				"/>
				<path d="M66.58,70.275L95.688,0l41.167,41.166L66.58,70.275z M96.392,3.53L70.275,66.58l63.049-26.116L96.392,3.53z"/>
			</g>
			<g>
				<polygon style="fill:#FFFFFF;" points="135.09,96.04 68.428,68.427 135.09,40.815 				"/>
				<path d="M136.09,97.536L65.814,68.427l70.275-29.109V97.536z M71.041,68.427l63.049,26.116V42.312L71.041,68.427z"/>
			</g>
		</g>
		<g>
			<g>
				<g>
					<path d="M70.647,13.467c-0.093,5.593-0.139,9.152-0.139,10.679c0,5.157,0.108,8.113,0.326,8.868
						c0.218,0.756,1.021,1.195,2.408,1.32c0.623,0.062,0.935,0.195,0.935,0.397c0,0.374-0.242,0.561-0.725,0.561
						c-0.125,0-0.265-0.008-0.419-0.023c-0.531-0.047-1.402-0.07-2.617-0.07c-2.524,0-4.479,0.031-5.866,0.093
						c-0.296,0.016-0.53,0.023-0.701,0.023c-0.499,0-0.748-0.14-0.748-0.421c0-0.296,0.265-0.46,0.795-0.491
						c1.62-0.109,2.609-0.487,2.968-1.134c0.357-0.646,0.537-2.099,0.537-4.358c0-6.2-0.031-10.173-0.093-11.918
						c-0.062-1.745-0.336-2.905-0.817-3.482c-0.484-0.576-1.247-0.865-2.291-0.865c-0.67,0-1.091-0.043-1.261-0.129
						c-0.173-0.085-0.258-0.229-0.258-0.432c0-0.234,0.28-0.358,0.841-0.374c1.075-0.016,2.228-0.187,3.458-0.514
						c1.231-0.327,2.188-0.732,2.875-1.215c0.17-0.125,0.31-0.187,0.419-0.187c0.249,0,0.374,0.218,0.374,0.654V13.467z"/>
				</g>
			</g>
			<g>
				<g>
					<path d="M70.647,13.467c-0.093,5.593-0.139,9.152-0.139,10.679c0,5.157,0.108,8.113,0.326,8.868
						c0.218,0.756,1.021,1.195,2.408,1.32c0.623,0.062,0.935,0.195,0.935,0.397c0,0.374-0.242,0.561-0.725,0.561
						c-0.125,0-0.265-0.008-0.419-0.023c-0.531-0.047-1.402-0.07-2.617-0.07c-2.524,0-4.479,0.031-5.866,0.093
						c-0.296,0.016-0.53,0.023-0.701,0.023c-0.499,0-0.748-0.14-0.748-0.421c0-0.296,0.265-0.46,0.795-0.491
						c1.62-0.109,2.609-0.487,2.968-1.134c0.357-0.646,0.537-2.099,0.537-4.358c0-6.2-0.031-10.173-0.093-11.918
						c-0.062-1.745-0.336-2.905-0.817-3.482c-0.484-0.576-1.247-0.865-2.291-0.865c-0.67,0-1.091-0.043-1.261-0.129
						c-0.173-0.085-0.258-0.229-0.258-0.432c0-0.234,0.28-0.358,0.841-0.374c1.075-0.016,2.228-0.187,3.458-0.514
						c1.231-0.327,2.188-0.732,2.875-1.215c0.17-0.125,0.31-0.187,0.419-0.187c0.249,0,0.374,0.218,0.374,0.654V13.467z"/>
				</g>
			</g>
		</g>
		<g>
			<g>
				<g>
					<path d="M85.604,96.233c0.541-0.629,1.063-1.196,1.57-1.702l7.32-7.155c1.135-1.135,1.867-1.9,2.198-2.297
						c0.353-0.353,0.634-0.423,0.845-0.213c0.1,0.1,0.128,0.305,0.085,0.614c-1.052,6.88-1.27,12.015-0.655,15.406
						c0.615,3.391,1.758,5.922,3.431,7.595c0.957,0.957,2.021,1.554,3.194,1.789c1.172,0.237,2.249-0.136,3.229-1.116
						c1.597-1.597,2.217-3.616,1.859-6.056c-0.358-2.44-1.28-4.404-2.768-5.891c-0.683-0.683-1.327-1.063-1.933-1.14
						c-0.606-0.077-1.173,0.149-1.702,0.677c-0.408,0.408-0.711,1.052-0.909,1.933c-0.198,0.881,0.033,2.026,0.694,3.437
						c0.177,0.374,0.194,0.633,0.05,0.776c-0.22,0.22-0.441,0.22-0.661,0c-0.198-0.198-0.449-0.763-0.752-1.693
						c-0.303-0.931-0.361-1.969-0.173-3.115c0.187-1.145,0.601-2.038,1.24-2.677c0.782-0.782,1.776-1.164,2.982-1.148
						c1.207,0.017,2.217,0.433,3.032,1.248c1.531,1.531,2.225,3.993,2.082,7.386c-0.143,3.392-1.167,6.042-3.073,7.948
						c-1.278,1.278-2.759,2.01-4.444,2.198c-1.685,0.188-3.242-0.433-4.673-1.863c-1.375-1.375-2.225-3.128-2.549-5.259
						s-0.165-5.629,0.476-10.496c0.325-2.59,0.518-4.358,0.582-5.301L91.198,95.1c-1.452,1.452-2.318,2.494-2.598,3.127
						c-0.28,0.632-0.314,1.592-0.105,2.881c0.111,0.682,0.105,1.085-0.016,1.206c-0.176,0.176-0.353,0.176-0.53-0.001L85.604,96.233
						z"/>
				</g>
			</g>
		</g>
		<g>
			<g>
				<g>
					<path d="M36.25,32.648c1.454-1.454,2.985-2.214,4.594-2.28s2.974,0.463,4.098,1.586c1.531,1.531,2.212,3.725,2.041,6.584
						c-0.17,2.858-1.296,5.328-3.379,7.411c-1.663,1.663-3.338,2.594-5.022,2.792c-1.686,0.198-2.925-0.1-3.718-0.893
						c-0.452-0.452-0.697-1-0.733-1.646c-0.037-0.646,0.189-1.213,0.676-1.7c0.344-0.344,0.744-0.508,1.202-0.494
						c0.457,0.015,0.829,0.165,1.114,0.45c0.154,0.154,0.29,0.434,0.411,0.841c0.131,0.418,0.323,0.752,0.576,1.005
						c0.571,0.571,1.309,0.76,2.215,0.566c0.907-0.193,1.749-0.679,2.53-1.46c1.045-1.045,1.619-2.235,1.724-3.571
						c0.105-1.336-0.231-2.87-1.007-4.601s-1.476-2.911-2.103-3.538c-0.814-0.814-1.68-1.229-2.598-1.246
						c-0.917-0.017-1.69,0.288-2.315,0.913c-0.451,0.451-0.769,1.452-0.952,3.001c-0.153,1.21-0.273,1.859-0.36,1.946
						c-0.198,0.198-0.402,0.193-0.611-0.017c-0.088-0.088-0.012-1.034,0.228-2.838c0.435-3.277,0.472-5.451,0.114-6.525
						c-0.359-1.073-0.852-1.924-1.48-2.551c-0.804-0.804-1.707-1.223-2.708-1.257c-1.002-0.034-1.882,0.328-2.639,1.086
						c-1.045,1.045-1.555,2.403-1.53,4.075c0.024,1.673,0.57,3.043,1.639,4.111c0.562,0.562,1.092,0.874,1.593,0.935
						c0.5,0.061,0.969-0.127,1.408-0.566c0.658-0.658,0.749-1.763,0.273-3.313c-0.055-0.209-0.028-0.369,0.081-0.478
						c0.208-0.208,0.412-0.214,0.61-0.015c0.242,0.242,0.411,1.038,0.507,2.384c0.096,1.348-0.274,2.439-1.109,3.274
						c-0.747,0.747-1.555,1.092-2.423,1.035c-0.869-0.056-1.623-0.404-2.262-1.043c-1.311-1.311-1.882-3.152-1.714-5.524
						s1.166-4.471,2.992-6.297c1.408-1.408,2.789-2.15,4.143-2.226c1.354-0.076,2.476,0.333,3.369,1.225
						c0.661,0.661,1.066,1.424,1.215,2.288c0.148,0.865,0.157,1.694,0.025,2.487L36.25,32.648z"/>
				</g>
			</g>
		</g>
		<g>
			<g>
				<g>
					<path d="M37.616,98.782c2.528,2.528,5.287,5.199,8.278,8.014c-0.119,0.141-0.205,0.238-0.26,0.292
						c-0.075,0.075-0.189,0.179-0.341,0.308c-6.806,0.715-13.579,1.099-20.319,1.151c-0.297-0.231-0.484-0.385-0.562-0.463
						c-0.175-0.175-0.225-0.358-0.148-0.545c0.838-0.905,1.567-1.667,2.184-2.284l6.124-5.957c0.486-0.486,1.175-1.197,2.069-2.135
						c-1.608-1.608-2.886-2.434-3.834-2.479c-0.947-0.043-1.965,0.447-3.057,1.471c-0.275,0.254-0.508,0.285-0.702,0.092
						c-0.204-0.204-0.163-0.449,0.123-0.735c0.099-0.099,0.226-0.214,0.379-0.347c0.583-0.472,1.352-1.186,2.308-2.142l3.511-3.643
						c0.231-0.231,0.454-0.239,0.668-0.024c0.15,0.15,0.142,0.351-0.024,0.604c-0.805,1.266-1.223,2.247-1.256,2.941
						c-0.033,0.694,0.413,1.504,1.338,2.429c0.165,0.165,0.573,0.551,1.223,1.157c2.963-2.963,4.594-4.633,4.891-5.006
						c0.297-0.375,0.419-0.832,0.364-1.372c-0.055-0.54-0.463-1.19-1.223-1.95c-0.353-0.353-0.435-0.622-0.248-0.81
						c0.231-0.231,0.65-0.044,1.255,0.561l6.247,6.247c0.617,0.617,0.81,1.041,0.578,1.272c-0.187,0.187-0.551,0.022-1.091-0.496
						c-0.991-0.947-1.849-1.309-2.57-1.083C42.801,94.074,40.833,95.719,37.616,98.782z M36.939,99.459
						c-2.063,1.798-4.815,4.451-8.257,7.958c3.3-0.186,5.941-0.296,7.927-0.328c1.986-0.032,4.457-0.258,7.414-0.675
						c-1.842-1.69-3.789-3.561-5.842-5.614C38.015,100.635,37.601,100.188,36.939,99.459z"/>
				</g>
			</g>
		</g>
		<g>
			<g>
				<g>
					<path d="M104.33,30.001c-3.062,2.049-5.117,3.497-6.163,4.346c1.123,0.109,2.131,0.357,3.023,0.743
						c0.892,0.386,1.675,0.915,2.347,1.587c1.333,1.333,2.082,2.963,2.247,4.891c0.165,1.928-0.495,3.636-1.982,5.123
						c-1.84,1.84-4.291,2.665-7.354,2.478c-3.062-0.187-5.568-1.256-7.517-3.205c-1.388-1.388-2.228-2.907-2.518-4.556
						c-0.29-1.649,0.085-2.993,1.124-4.032c0.519-0.519,1.058-0.755,1.616-0.705c0.557,0.048,1.028,0.265,1.414,0.652
						c0.308,0.308,0.487,0.702,0.537,1.181c0.049,0.48-0.08,0.873-0.389,1.182c-0.176,0.176-0.469,0.379-0.876,0.611
						c-0.441,0.242-0.755,0.457-0.942,0.644c-0.419,0.419-0.636,1.027-0.653,1.826c-0.016,0.799,0.422,1.644,1.314,2.537
						c1.608,1.608,3.543,2.207,5.805,1.796c2.262-0.411,4.399-1.623,6.412-3.636c1.21-1.21,1.888-2.346,2.037-3.408
						c0.147-1.063-0.236-2.051-1.15-2.965c-1.08-1.08-2.4-1.632-3.96-1.658c-1.571-0.037-2.78,0.279-3.624,0.948
						c-0.519,0.407-0.876,0.512-1.074,0.314c-0.187-0.187-0.171-0.39,0.049-0.61c0.066-0.066,1.943-1.438,5.635-4.116l4.214-3.089
						c1.123-0.838,1.91-1.361,2.363-1.57c1.629,2.268,2.648,3.607,3.056,4.014c1.509,1.509,3.41,2.11,5.701,1.802
						c0.441-0.066,0.733-0.028,0.876,0.116c0.165,0.165,0.176,0.319,0.033,0.462c-0.793,0.793-2.217,1.116-4.271,0.966
						c-2.055-0.148-3.963-1.104-5.726-2.867C105.524,31.394,104.99,30.794,104.33,30.001z"/>
				</g>
			</g>
		</g>
		<g>
			<g>
				<g>
					<path d="M124.783,77.424l-0.678-0.211c-2.695-1.527-5.375-2.823-8.039-3.89c-2.664-1.068-4.689-1.726-6.076-1.975
						s-3.871-0.46-7.454-0.63c-2.493-0.126-3.739-0.865-3.739-2.221c0-0.576,0.234-1.032,0.701-1.367
						c0.467-0.334,1.036-0.502,1.706-0.502c1.667,0,5.102,1.184,10.305,3.552l9.394,4.37c0.249,0.123,0.428,0.187,0.537,0.187
						c0.203,0,0.304-0.149,0.304-0.445l0.023-3.038c0-3.692-0.012-6.017-0.035-6.976c-0.024-0.957-0.331-1.745-0.923-2.36
						c-0.592-0.616-1.153-1.056-1.683-1.321c-0.452-0.249-0.678-0.491-0.678-0.724c0-0.297,0.164-0.445,0.491-0.445
						c0.296,0,1.472,0.246,3.529,0.736c2.056,0.491,3.24,0.822,3.552,0.993c0.312,0.171,0.467,0.35,0.467,0.537
						c0,0.235-0.171,0.422-0.514,0.561c-0.389,0.171-0.674,0.441-0.853,0.806c-0.179,0.367-0.268,1.212-0.268,2.536l0.07,5.281
						C124.923,72.751,124.876,74.932,124.783,77.424z"/>
				</g>
			</g>
		</g>
		<g>
			<g>
				<g>
					<path d="M65.332,115.71c-1.901-0.842-3.325-1.842-4.277-3.003c-0.949-1.159-1.425-2.479-1.425-3.957
						c0-2.039,0.938-3.829,2.816-5.37c1.877-1.54,3.969-2.311,6.273-2.311c2.213,0,4.183,0.634,5.913,1.902
						c1.729,1.268,2.593,2.759,2.593,4.471c0,1.198-0.428,2.288-1.285,3.269s-2.422,2.125-4.698,3.432
						c3.335,1.388,5.002,3.376,5.002,5.964c0,1.917-0.787,3.645-2.361,5.181c-1.573,1.536-3.559,2.304-5.958,2.304
						c-1.947,0-3.685-0.527-5.212-1.579c-1.527-1.053-2.29-2.421-2.29-4.105c0-1.153,0.389-2.225,1.168-3.216
						C62.372,117.702,63.618,116.708,65.332,115.71z M70.192,113.722c3.131-1.887,4.696-4.038,4.696-6.455
						c0-1.404-0.544-2.636-1.635-3.696c-1.091-1.06-2.602-1.59-4.535-1.59c-1.899,0-3.403,0.53-4.509,1.59
						c-1.106,1.061-1.66,2.331-1.66,3.813c0,1.013,0.297,1.965,0.889,2.853c0.592,0.873,1.569,1.551,2.932,2.035
						C67.734,112.755,69.008,113.238,70.192,113.722z M66.383,116.155c-1.51,0.78-2.535,1.606-3.073,2.479
						c-0.537,0.874-0.805,1.887-0.805,3.041c0,1.575,0.545,2.814,1.635,3.719c1.092,0.904,2.385,1.357,3.88,1.357
						c1.589,0,2.948-0.445,4.077-1.333c1.13-0.889,1.694-2.058,1.694-3.509c0-1.341-0.502-2.394-1.508-3.158
						C71.279,117.987,69.313,117.122,66.383,116.155z"/>
				</g>
			</g>
		</g>
		<g>
			<g>
				<g>
					<path d="M21.805,74.363c-0.826-1.075-1.446-2.185-1.859-3.33c-0.413-1.144-0.62-2.332-0.62-3.563
						c0-2.368,0.737-4.348,2.212-5.937c1.475-1.589,3.288-2.382,5.441-2.382c2.185,0,4.193,0.88,6.026,2.64
						c1.833,1.76,2.75,4.106,2.75,7.033c0,2.711-0.993,4.943-2.98,6.695c-1.986,1.753-4.81,2.629-8.471,2.629
						c-3.178,0-5.842-0.642-7.992-1.928c-2.15-1.285-3.789-2.816-4.919-4.592s-1.694-3.971-1.694-6.589
						c0-1.869,0.412-3.393,1.234-4.569c0.823-1.176,1.801-1.764,2.934-1.764c0.699,0,1.257,0.21,1.677,0.632
						c0.419,0.419,0.629,0.887,0.629,1.402c0,1.2-0.631,1.799-1.893,1.799c-1.231,0-1.986,0.031-2.267,0.093
						c-0.28,0.062-0.584,0.37-0.911,0.923c-0.327,0.554-0.491,1.282-0.491,2.185c0,2.182,0.978,4.036,2.934,5.563
						C15.499,72.829,18.252,73.849,21.805,74.363z M27.259,74.667c2.357,0,4.218-0.573,5.583-1.718
						c1.366-1.144,2.048-2.581,2.048-4.312c0-1.822-0.745-3.232-2.236-4.229c-1.49-0.997-3.234-1.496-5.231-1.496
						s-3.666,0.499-5.009,1.496c-1.342,0.997-2.013,2.352-2.013,4.066c0,1.683,0.585,3.135,1.756,4.358
						C23.327,74.055,25.028,74.667,27.259,74.667z"/>
				</g>
			</g>
		</g>
	</g>
</g>
<g id="Layer_1">
</g>
</svg>
