<?xml version="1.0" encoding="iso-8859-1"?>
<!-- Generator: Adobe Illustrator 24.2.0, SVG Export Plug-In . SVG Version: 6.00 Build 0)  -->
<svg version="1.1" xmlns="http://www.w3.org/2000/svg" xmlns:xlink="http://www.w3.org/1999/xlink" x="0px" y="0px"
	 viewBox="0 0 18.326 115.677" style="enable-background:new 0 0 18.326 115.677;" xml:space="preserve">
<g id="Spinner">
	<g>
		<path d="M0.779,115.677c2.8-0.008,5.6-0.017,8.399-0.025c2.8-0.008,5.6-0.017,8.399-0.025c0.405-0.001,0.749-0.346,0.748-0.752
			c-0.009-3-0.018-6-0.027-9c-0.001-0.358-0.24-0.601-0.553-0.722c-2.187-0.842-4.375-1.684-6.562-2.526
			c-0.021-0.01-0.044-0.017-0.066-0.025c-0.025-0.01-0.049-0.019-0.074-0.029c-0.072-0.028-0.134-0.027-0.2-0.033l-0.113-37.817
			c3.819-0.8,6.682-4.191,6.67-8.246c-0.012-4.055-2.895-7.429-6.719-8.206l-0.097-32.456c1.52-0.005,3.041-0.009,4.561-0.014
			c1.903-0.006,3.099-2.131,2.147-3.768c-2.1-3.612-4.199-7.224-6.299-10.835c-0.531-0.913-1.352-1.246-2.158-1.193
			C8.029-0.045,7.207,0.291,6.679,1.211C4.601,4.836,2.523,8.46,0.445,12.084c-0.942,1.643,0.267,3.761,2.17,3.755
			c1.52-0.005,3.041-0.009,4.561-0.014l0.097,32.456c-3.819,0.8-6.682,4.191-6.67,8.246c0.012,4.055,2.895,7.429,6.719,8.206
			l0.113,37.817c-0.065,0.007-0.127,0.006-0.199,0.034c-0.025,0.01-0.05,0.019-0.074,0.029c-0.022,0.008-0.044,0.015-0.065,0.025
			c-2.182,0.855-4.365,1.71-6.547,2.565c-0.312,0.122-0.549,0.371-0.548,0.725c0.009,3,0.018,6,0.027,9
			C0.028,115.335,0.373,115.678,0.779,115.677z"/>
	</g>
</g>
<g id="Layer_1">
</g>
</svg>
