<?xml version="1.0" encoding="iso-8859-1"?>
<!-- Generator: Adobe Illustrator 24.2.0, SVG Export Plug-In . SVG Version: 6.00 Build 0)  -->
<svg version="1.1" xmlns="http://www.w3.org/2000/svg" xmlns:xlink="http://www.w3.org/1999/xlink" x="0px" y="0px"
	 viewBox="0 0 100.691 134" style="enable-background:new 0 0 100.691 134;" xml:space="preserve">
<g id="Start">
	<g>
		<g>
			<g>
				<polygon style="fill:#FFFFFF;" points="1,133 100.277,133 44.578,1 1,1 				"/>
			</g>
			<g>
				<path style="fill:#1A1A1A;" d="M100.691,134H0V0h45.241L100.691,134z M2,132h96.77L43.915,2H2V132z"/>
			</g>
		</g>
		<g>
			<polygon points="16.746,113.861 16.746,108.911 6.121,119.536 16.746,130.161 16.746,125.211 21.046,125.211 21.046,119.536 
				21.046,113.861 			"/>
		</g>
		<g>
			<path d="M21.299,95.421c0,0.902-0.219,1.806-0.656,2.708c-0.437,0.903-0.889,1.799-1.354,2.688c0,0.282,0.215,0.646,0.645,1.09
				c0.431,0.444,0.886,0.786,1.365,1.026v0.359l-7.702-3.132v-0.381c0.198,0.015,0.49,0.028,0.878,0.043
				c0.389,0.014,0.667,0.021,0.836,0.021c0.678,0,1.263-0.049,1.757-0.147c0.493-0.099,1.062-0.293,1.703-0.582
				s1.156-0.783,1.544-1.481c0.389-0.698,0.582-1.506,0.582-2.423c0-0.847-0.246-1.53-0.74-2.053
				c-0.493-0.521-1.058-0.782-1.692-0.782c-0.424,0-0.818,0.141-1.186,0.423c-0.366,0.282-0.786,0.85-1.259,1.703
				c-0.473,0.854-1.04,1.873-1.703,3.058c-0.974,1.383-2.18,2.074-3.618,2.074c-1.425,0-2.666-0.656-3.725-1.968
				c-1.058-1.313-1.587-2.885-1.587-4.719c0-0.959,0.142-1.82,0.424-2.582c0.31-0.69,0.62-1.389,0.931-2.095
				c0-0.338-0.113-0.62-0.339-0.846s-0.563-0.473-1.016-0.741v-0.402l6.433,2.604v0.381c-0.184-0.028-0.402-0.05-0.656-0.063
				c-0.254-0.015-0.557-0.021-0.909-0.021c-0.564,0-1.048,0.024-1.45,0.074c-0.401,0.05-0.839,0.173-1.312,0.37
				s-0.874,0.55-1.206,1.058c-0.331,0.508-0.497,1.228-0.497,2.158c0,0.72,0.201,1.387,0.603,2c0.402,0.613,0.942,0.92,1.619,0.92
				c0.438,0,0.847-0.137,1.228-0.412s0.677-0.596,0.889-0.963c0.211-0.366,0.561-0.994,1.047-1.883
				c0.487-0.889,0.903-1.608,1.249-2.158c0.346-0.551,0.835-1.026,1.47-1.429s1.333-0.603,2.096-0.603
				c1.537,0,2.807,0.67,3.809,2.01C20.798,91.661,21.299,93.361,21.299,95.421z"/>
			<path d="M18.4,77.752c0.889,0.354,1.46,0.529,1.714,0.529c0.395,0,0.592-0.698,0.592-2.095h0.339v10.051h-0.339l-0.084-1.164
				c-0.057-0.521-0.223-0.906-0.498-1.153c-0.274-0.246-0.934-0.596-1.978-1.047s-2.511-1.055-4.401-1.81
				c-1.891-0.754-3.456-1.378-4.697-1.872s-2.257-0.896-3.047-1.206l0.063,0.592c0.07,0.805,0.771,1.923,2.104,3.354
				s2.748,2.754,4.243,3.967v0.36L5.62,83.529V66.813l6.792,2.729v0.36c-2.06,0-3.633,0.215-4.719,0.646
				c-1.086,0.43-1.629,0.948-1.629,1.555l-0.043,0.656L18.4,77.752z"/>
			<path d="M13.956,61.439c0.142,0.071,0.607,0.311,1.396,0.72c0.791,0.409,1.707,0.921,2.751,1.534s1.838,1.259,2.381,1.937
				c0.543,0.677,0.814,1.552,0.814,2.623c0,0.875-0.257,1.612-0.772,2.211c-0.515,0.6-1.217,0.899-2.105,0.899
				c-0.804,0-1.484-0.278-2.042-0.836c-0.557-0.557-0.836-1.251-0.836-2.084c0-0.762,0.229-1.407,0.688-1.936
				c0.458-0.529,1.082-0.794,1.872-0.794c0.339,0,0.649,0.057,0.932,0.17c0.282,0.112,0.49,0.243,0.624,0.391
				c0.134,0.148,0.293,0.367,0.476,0.656c0.184,0.289,0.346,0.434,0.487,0.434c0.084-0.099,0.127-0.176,0.127-0.232
				c0-0.296-0.162-0.674-0.487-1.132c-0.324-0.459-0.836-0.921-1.534-1.387c-0.698-0.465-1.551-0.962-2.56-1.491
				s-2.243-1.213-3.703-2.053c-1.46-0.839-2.561-1.509-3.301-2.01c-0.741-0.501-1.534-1.386-2.381-2.655
				c-0.846-1.27-1.27-2.843-1.27-4.719c0-0.748,0.015-1.333,0.043-1.757c0.028-0.423,0.063-0.797,0.105-1.121l12.738,5.12
				c0.889,0.354,1.453,0.529,1.692,0.529c0.339,0,0.525-0.204,0.561-0.613s0.053-0.952,0.053-1.63h0.339v10.241h-0.339
				c0-0.169-0.011-0.37-0.031-0.603c-0.021-0.232-0.05-0.521-0.085-0.867s-0.19-0.643-0.466-0.889
				c-0.274-0.247-0.863-0.568-1.767-0.963l-4.401-1.82V61.439z M13.47,57.122l-7.215-2.898c0.155,0.733,0.493,1.467,1.016,2.2
				c0.521,0.733,1.1,1.358,1.734,1.873s1.313,0.998,2.031,1.449c0.72,0.451,1.531,0.924,2.434,1.418V57.122z"/>
			<path d="M13.385,40.829l5.016,1.989c0.874,0.353,1.445,0.529,1.714,0.529c0.226,0,0.381-0.138,0.465-0.413
				c0.085-0.274,0.127-0.836,0.127-1.682h0.339v10.051h-0.339l-0.084-1.164c-0.057-0.521-0.223-0.906-0.498-1.153
				c-0.274-0.246-0.896-0.582-1.861-1.005c-0.967-0.423-2.155-0.921-3.565-1.492s-2.532-1.019-3.364-1.343
				c-0.832-0.325-1.749-0.681-2.751-1.069c-1.002-0.388-1.629-0.582-1.883-0.582c-0.311,0-0.512,0.135-0.604,0.402
				c-0.092,0.269-0.138,0.84-0.138,1.714H5.62l-0.021-9.543c0-1.848,0.282-3.286,0.847-4.316c0.563-1.029,1.438-1.545,2.623-1.545
				c1.313,0,2.331,0.581,3.058,1.74c0.727,1.16,1.09,2.499,1.09,4.018l-0.021,0.527h0.127c0.198-0.678,0.363-1.188,0.498-1.534
				c0.134-0.346,0.412-0.702,0.835-1.069c0.424-0.366,0.805-0.609,1.144-0.729c0.338-0.12,0.769-0.18,1.29-0.18
				c0.579,0,1.178,0.082,1.799,0.245s0.974,0.245,1.058,0.245c0.127,0,0.24-0.018,0.339-0.054c0.099-0.035,0.148-0.152,0.148-0.353
				c0-0.211-0.117-0.454-0.35-0.729s-0.479-0.508-0.74-0.698s-0.512-0.353-0.751-0.486c-0.24-0.135-0.536-0.286-0.889-0.455
				l0.105-0.275c1.199,0.508,2.081,1.125,2.645,1.853c0.564,0.727,0.847,1.685,0.847,2.874c0,1.203-0.282,2.138-0.847,2.803
				c-0.563,0.665-1.396,0.998-2.496,0.998c-0.409,0-1.076-0.134-2-0.402c-0.924-0.268-1.436-0.401-1.534-0.401
				c-0.31,0-0.561,0.073-0.751,0.222s-0.286,0.413-0.286,0.794l-0.021,0.655L13.385,40.829z M13.004,40.66l-0.063-1.862
				c0-0.944-0.571-1.759-1.714-2.443s-2.327-1.026-3.555-1.026c-1.086,0-1.629,0.444-1.629,1.333l-0.042,1.121L13.004,40.66z"/>
			<path d="M18.4,20.347c0.889,0.354,1.46,0.529,1.714,0.529c0.395,0,0.592-0.698,0.592-2.095h0.339v10.051h-0.339l-0.084-1.164
				c-0.057-0.521-0.223-0.906-0.498-1.153c-0.274-0.246-0.934-0.596-1.978-1.047s-2.511-1.055-4.401-1.81
				c-1.891-0.754-3.456-1.378-4.697-1.872s-2.257-0.896-3.047-1.206l0.063,0.592c0.07,0.805,0.771,1.923,2.104,3.354
				s2.748,2.754,4.243,3.967v0.36L5.62,26.124V9.407l6.792,2.729v0.36c-2.06,0-3.633,0.215-4.719,0.646
				c-1.086,0.43-1.629,0.948-1.629,1.555l-0.043,0.656L18.4,20.347z"/>
		</g>
	</g>
</g>
<g id="Layer_1">
</g>
</svg>
