<?xml version="1.0" encoding="iso-8859-1"?>
<!-- Generator: Adobe Illustrator 24.2.0, SVG Export Plug-In . SVG Version: 6.00 Build 0)  -->
<svg version="1.1" xmlns="http://www.w3.org/2000/svg" xmlns:xlink="http://www.w3.org/1999/xlink" x="0px" y="0px"
	 viewBox="0 0 134 102.198" style="enable-background:new 0 0 134 102.198;" xml:space="preserve">
<g id="Taxes">
	<g>
		<g>
			<g>
				<polygon style="fill:#E2CBC5;" points="1,101.198 1,0.419 133,55.398 133,101.198 				"/>
			</g>
			<g>
				<path style="fill:#1A1A1A;" d="M134,102.198H0V0l134,54.731V102.198z M2,100.198h130V56.065L2,1.919V100.198z"/>
			</g>
		</g>
		<g>
			<path d="M17.171,38.829v-0.584l0.844,0.141c0.181-0.867,0.678-1.423,1.489-1.666l0.294,0.831
				c-0.57,0.144-0.909,0.466-1.015,0.967l1.775,0.294c0.255-0.984,0.776-1.477,1.564-1.477c0.48,0,0.877,0.176,1.19,0.525
				c0.313,0.351,0.471,0.785,0.471,1.303c0,0.053-0.003,0.116-0.009,0.189l0.638,0.105v0.58l-0.717-0.119
				c-0.138,0.721-0.529,1.203-1.174,1.446l-0.289-0.813c0.404-0.164,0.64-0.417,0.707-0.76l-1.547-0.26
				c-0.138,0.419-0.256,0.715-0.354,0.889c-0.099,0.172-0.271,0.334-0.517,0.482c-0.246,0.15-0.512,0.225-0.796,0.225
				c-0.504,0-0.929-0.188-1.273-0.563c-0.347-0.375-0.52-0.847-0.52-1.415c0-0.056,0.005-0.12,0.014-0.193L17.171,38.829z
				 M18.701,39.085c-0.004,0.058-0.005,0.102-0.005,0.131c0,0.291,0.084,0.53,0.253,0.719c0.168,0.189,0.374,0.283,0.617,0.283
				c0.448,0,0.725-0.284,0.83-0.852L18.701,39.085z M23.007,39.221c0-0.334-0.076-0.582-0.227-0.745
				c-0.151-0.162-0.328-0.244-0.529-0.244c-0.364,0-0.608,0.248-0.734,0.743L23.007,39.221z"/>
			<path d="M17.843,46.256v-4.447l1.094,0.141c0.337,0.609,0.736,1.262,1.198,1.958c0.461,0.695,0.842,1.164,1.143,1.406
				c0.3,0.241,0.606,0.362,0.921,0.362c0.266,0,0.486-0.091,0.661-0.272c0.174-0.182,0.261-0.406,0.261-0.672
				c0-0.316-0.111-0.596-0.334-0.838c-0.223-0.241-0.533-0.409-0.932-0.503l0.409-0.932c0.577,0.208,1.02,0.516,1.327,0.923
				s0.461,0.868,0.461,1.385c0,0.57-0.176,1.049-0.527,1.435c-0.352,0.385-0.789,0.577-1.313,0.577
				c-0.437,0-0.835-0.117-1.195-0.352s-0.755-0.714-1.185-1.438c-0.429-0.726-0.772-1.393-1.03-2.002v3.433L17.843,46.256z"/>
			<path d="M17.676,49.531c0-0.694,0.259-1.213,0.778-1.556c0.518-0.343,1.135-0.514,1.85-0.514c0.896,0,1.736,0.238,2.521,0.716
				C23.608,48.655,24,49.317,24,50.163c0,0.56-0.221,1.034-0.663,1.424s-1.11,0.585-2.004,0.585c-0.393,0-0.873-0.077-1.441-0.229
				c-0.568-0.153-1.08-0.441-1.534-0.866S17.676,50.137,17.676,49.531z M18.498,49.539c0,0.56,0.377,0.968,1.13,1.224
				c0.753,0.257,1.454,0.385,2.104,0.385c0.469,0,0.827-0.096,1.075-0.286c0.247-0.19,0.371-0.452,0.371-0.786
				c0-0.527-0.367-0.922-1.101-1.183c-0.734-0.261-1.439-0.391-2.116-0.391c-0.463,0-0.822,0.092-1.079,0.274
				C18.627,48.96,18.498,49.214,18.498,49.539z"/>
			<path d="M17.676,54.809c0-0.694,0.259-1.213,0.778-1.556c0.518-0.343,1.135-0.514,1.85-0.514c0.896,0,1.736,0.238,2.521,0.716
				C23.608,53.933,24,54.595,24,55.442c0,0.56-0.221,1.034-0.663,1.424s-1.11,0.585-2.004,0.585c-0.393,0-0.873-0.077-1.441-0.229
				c-0.568-0.153-1.08-0.441-1.534-0.866S17.676,55.415,17.676,54.809z M18.498,54.818c0,0.56,0.377,0.968,1.13,1.224
				c0.753,0.257,1.454,0.385,2.104,0.385c0.469,0,0.827-0.096,1.075-0.286c0.247-0.19,0.371-0.452,0.371-0.786
				c0-0.527-0.367-0.922-1.101-1.183c-0.734-0.261-1.439-0.391-2.116-0.391c-0.463,0-0.822,0.092-1.079,0.274
				C18.627,54.239,18.498,54.492,18.498,54.818z"/>
			<path d="M17.843,64.033v-3.898l5.998,1.002v3.793l-0.939-0.158v-2.716l-1.557-0.259v2.25l-0.887-0.15v-2.25l-1.675-0.281v2.826
				L17.843,64.033z"/>
			<path d="M17.843,69.733v-1.2l1.45-0.246v-2.175l-1.45-0.668v-1.015l5.998,2.873v1.332L17.843,69.733z M20.128,68.186l2.663-0.47
				l-2.663-1.235V68.186z"/>
			<path d="M19.487,74.952c-1.201-0.513-1.802-1.305-1.802-2.377c0-0.65,0.235-1.18,0.705-1.589
				c0.471-0.408,1.109-0.612,1.918-0.612c1.012,0,1.879,0.262,2.604,0.786C23.637,71.685,24,72.359,24,73.182
				c0,0.642-0.186,1.149-0.558,1.524s-0.888,0.59-1.547,0.643l-0.176-0.977c0.92-0.088,1.38-0.492,1.38-1.213
				c0-0.583-0.346-1.002-1.037-1.259c-0.691-0.256-1.35-0.384-1.973-0.384c-0.487,0-0.854,0.107-1.1,0.322
				c-0.246,0.216-0.369,0.49-0.369,0.824c0,0.308,0.12,0.587,0.358,0.837c0.239,0.251,0.53,0.442,0.872,0.573L19.487,74.952z"/>
			<path d="M17.843,80.025v-1.076l2.598,0.435v-2.347l-2.598-0.436v-1.072l5.998,1.002v1.077l-2.456-0.413v2.347l2.456,0.413v1.072
				L17.843,80.025z"/>
			<path d="M7.044,48.936v-1.1l5.998,1.002v3.691l-0.939-0.158v-2.588l-1.622-0.272v2.153l-0.892-0.149v-2.153L7.044,48.936z"/>
			<path d="M7.044,56.696v-1.2l1.45-0.246v-2.175l-1.45-0.668v-1.015l5.998,2.873v1.332L7.044,56.696z M9.329,55.149l2.663-0.47
				l-2.663-1.235V55.149z"/>
			<path d="M7.044,62.023v-1.146l2.461-0.638v-1.401l-2.461-0.414v-1.072l5.998,1.002v2.26c0,0.45-0.041,0.809-0.125,1.072
				c-0.083,0.264-0.268,0.5-0.551,0.709c-0.285,0.21-0.61,0.314-0.977,0.314c-0.393,0-0.756-0.116-1.092-0.348
				c-0.335-0.231-0.558-0.588-0.666-1.072L7.044,62.023z M10.379,58.982v1.49c0,0.457,0.102,0.758,0.305,0.902
				c0.204,0.146,0.418,0.218,0.645,0.218c0.193,0,0.358-0.051,0.496-0.151c0.138-0.102,0.229-0.221,0.274-0.358
				c0.046-0.138,0.068-0.345,0.068-0.62v-1.182L10.379,58.982z"/>
			<path d="M7.044,68.966v-1.077l5.463,0.914l-5.463-2.558v-0.584l5.414-0.809l-5.414-0.906v-0.839l5.998,1.002v1.647l-4.029,0.62
				l4.029,1.833v1.758L7.044,68.966z"/>
		</g>
		<g>
			<path d="M117.841,69.622v-1.201h6.665v2.729c0,0.778-0.196,1.354-0.589,1.731c-0.392,0.375-0.854,0.563-1.389,0.563
				c-0.608,0-1.102-0.203-1.479-0.61s-0.566-0.923-0.566-1.548v-1.665H117.841z M121.513,69.622v1.421
				c0,0.371,0.091,0.654,0.273,0.85s0.425,0.293,0.728,0.293c0.273,0,0.508-0.091,0.703-0.271c0.195-0.182,0.293-0.508,0.293-0.979
				v-1.313H121.513z"/>
			<path d="M117.841,79.202v-1.284l1.587-0.532v-2.563l-1.587-0.522v-1.025l6.665,2.212v1.479L117.841,79.202z M120.39,77.064
				l2.974-0.972l-2.974-0.972V77.064z"/>
			<path d="M117.841,82.093v-1.274h2.813l3.853-2.271v1.455l-2.749,1.582l2.749,1.514v1.152l-3.853-2.158H117.841z"/>
			<path d="M105.841,60.452v-1.201h6.665v1.201H105.841z"/>
			<path d="M105.841,66.951v-1.167l4.258-2.529c0.065-0.039,0.171-0.103,0.317-0.19c0.065-0.039,0.168-0.1,0.308-0.181h-4.883
				v-0.967h6.665v1.328l-3.926,2.334c-0.032,0.02-0.271,0.161-0.718,0.425h4.644v0.947H105.841z"/>
			<path d="M108.156,72.142l-0.122,1.113c-0.667-0.071-1.217-0.329-1.647-0.774c-0.432-0.443-0.647-1.027-0.647-1.75
				c0-0.608,0.153-1.103,0.459-1.482c0.306-0.379,0.721-0.671,1.245-0.876s1.102-0.308,1.733-0.308c1.016,0,1.842,0.241,2.478,0.723
				c0.637,0.481,0.955,1.145,0.955,1.987c0,0.661-0.203,1.211-0.61,1.65s-0.989,0.716-1.748,0.83l-0.117-1.113
				c1.006-0.205,1.509-0.657,1.509-1.357c0-0.449-0.209-0.798-0.627-1.048c-0.419-0.248-1.025-0.373-1.819-0.373
				c-0.808,0-1.417,0.134-1.829,0.4c-0.411,0.267-0.617,0.62-0.617,1.06c0,0.352,0.139,0.651,0.415,0.898
				S107.772,72.11,108.156,72.142z"/>
			<path d="M105.739,76.663c0-0.886,0.332-1.575,0.996-2.067c0.664-0.494,1.484-0.74,2.461-0.74c0.97,0,1.781,0.262,2.435,0.786
				c0.652,0.524,0.979,1.216,0.979,2.075c0,0.866-0.326,1.551-0.979,2.053c-0.653,0.504-1.47,0.755-2.449,0.755
				c-1.028,0-1.859-0.261-2.492-0.784C106.055,78.219,105.739,77.526,105.739,76.663z M106.706,76.673
				c0,0.433,0.179,0.799,0.537,1.099s1.008,0.449,1.948,0.449c0.765,0,1.365-0.124,1.799-0.371c0.436-0.247,0.652-0.632,0.652-1.152
				c0-1.028-0.828-1.543-2.485-1.543c-0.804,0-1.413,0.131-1.829,0.393C106.914,75.81,106.706,76.185,106.706,76.673z"/>
			<path d="M105.841,87.181v-1.226h5.835l-5.835-1.846v-0.63l5.835-1.855h-5.835v-0.981h6.665v1.88l-4.292,1.396l4.292,1.372v1.89
				H105.841z"/>
			<path d="M105.841,92.982v-4.331h6.665v4.287h-0.991v-3.086h-1.807v2.48h-0.967v-2.48h-1.865v3.13H105.841z"/>
			<path d="M93.841,65.418v-1.289h5.635v-1.772h1.03v4.834h-1.03v-1.772H93.841z"/>
			<path d="M93.841,72.635v-1.284l1.587-0.532v-2.563l-1.587-0.522v-1.025l6.665,2.212v1.479L93.841,72.635z M96.39,70.496
				l2.974-0.972l-2.974-0.972V70.496z"/>
			<path d="M93.841,78.314v-1.401l2.627-1.475l-2.627-1.563v-1.118l3.472,2.109l3.193-1.812v1.396l-2.217,1.23l2.217,1.304v1.123
				l-3.042-1.855L93.841,78.314z"/>
			<path d="M93.841,83.431V79.1h6.665v4.287h-0.991v-3.086h-1.807v2.48h-0.967v-2.48h-1.865v3.13H93.841z"/>
			<path d="M95.448,83.768l0.249,1.167c-0.661,0.14-0.991,0.677-0.991,1.611c0,0.427,0.085,0.754,0.254,0.984
				c0.169,0.229,0.379,0.344,0.63,0.344c0.183,0,0.351-0.052,0.506-0.156c0.154-0.104,0.275-0.327,0.363-0.669l0.332-1.274
				c0.114-0.437,0.243-0.759,0.389-0.967c0.145-0.208,0.349-0.375,0.612-0.5c0.264-0.126,0.545-0.188,0.845-0.188
				c0.596,0,1.073,0.222,1.434,0.664c0.359,0.442,0.539,1.009,0.539,1.699c0,0.573-0.125,1.085-0.376,1.536
				c-0.251,0.45-0.605,0.737-1.064,0.861l-0.283-1.143c0.505-0.176,0.757-0.586,0.757-1.23c0-0.374-0.078-0.66-0.234-0.857
				c-0.156-0.196-0.354-0.295-0.596-0.295c-0.381,0-0.647,0.31-0.801,0.928l-0.283,1.133c-0.173,0.687-0.428,1.147-0.764,1.382
				c-0.338,0.234-0.709,0.352-1.116,0.352c-0.654,0-1.169-0.247-1.546-0.739c-0.375-0.494-0.563-1.133-0.563-1.917
				c0-0.661,0.139-1.239,0.415-1.735C94.43,84.26,94.862,83.931,95.448,83.768z"/>
		</g>
		<g>
			<path d="M62.977,37.079c0.022-0.886,0.37-1.566,1.046-2.042c0.677-0.478,1.503-0.704,2.479-0.68
				c0.97,0.023,1.774,0.305,2.415,0.846c0.639,0.541,0.948,1.239,0.927,2.099c-0.021,0.866-0.364,1.542-1.028,2.027
				c-0.666,0.488-1.488,0.719-2.468,0.695c-1.027-0.025-1.852-0.307-2.472-0.846C63.254,38.642,62.957,37.941,62.977,37.079z
				 M63.943,37.113c-0.011,0.433,0.159,0.803,0.51,1.112c0.352,0.309,0.997,0.474,1.937,0.497c0.765,0.019,1.368-0.09,1.808-0.327
				c0.442-0.236,0.668-0.616,0.681-1.136c0.025-1.028-0.79-1.563-2.447-1.603c-0.803-0.02-1.415,0.096-1.838,0.346
				C64.172,36.254,63.955,36.624,63.943,37.113z"/>
			<path d="M62.857,46.092l0.028-1.166l4.319-2.424c0.066-0.038,0.174-0.097,0.322-0.182c0.066-0.038,0.171-0.095,0.313-0.173
				l-4.882-0.121l0.023-0.967l6.663,0.164l-0.033,1.327l-3.98,2.238c-0.033,0.019-0.275,0.154-0.729,0.407l4.642,0.114l-0.023,0.946
				L62.857,46.092z"/>
			<path d="M62.63,55.284L62.663,54l1.6-0.493l0.063-2.563l-1.574-0.562l0.025-1.025l6.608,2.376l-0.036,1.479L62.63,55.284z
				 M65.232,53.209l2.997-0.898l-2.949-1.044L65.232,53.209z"/>
			<path d="M62.51,60.185l0.101-4.101l6.663,0.164l-0.031,1.265l-5.574-0.137l-0.069,2.836L62.51,60.185z"/>
			<path d="M62.387,65.168l0.101-4.1l6.663,0.164l-0.031,1.264l-5.574-0.137l-0.069,2.836L62.387,65.168z"/>
			<path d="M62.274,69.786l0.03-1.235l6.663,0.164l-0.104,4.213l-1.029-0.025l0.074-2.978l-1.821-0.045l-0.059,2.343l-1-0.025
				l0.059-2.343L62.274,69.786z"/>
			<path d="M62.062,78.387l0.031-1.283l1.6-0.493l0.063-2.563l-1.574-0.562l0.025-1.025l6.608,2.376l-0.036,1.479L62.062,78.387z
				 M64.664,76.312l2.996-0.898l-2.948-1.044L64.664,76.312z"/>
			<path d="M61.914,84.382l0.031-1.27l2.766-0.968l0.041-1.688l-2.739-0.068l0.029-1.201l6.663,0.164l-0.07,2.89
				c-0.021,0.804-0.217,1.391-0.587,1.76c-0.373,0.368-0.847,0.546-1.423,0.531c-0.856-0.021-1.436-0.436-1.737-1.245L61.914,84.382
				z M65.712,80.48l-0.037,1.494c-0.01,0.433,0.072,0.757,0.25,0.973c0.178,0.217,0.425,0.328,0.744,0.336
				c0.293,0.008,0.532-0.091,0.719-0.295c0.185-0.203,0.283-0.493,0.292-0.867l0.039-1.591L65.712,80.48z"/>
			<path d="M61.723,92.148l0.029-1.225l5.834,0.144l-5.788-1.989l0.016-0.63l5.88-1.711l-5.834-0.144l0.023-0.981l6.663,0.164
				l-0.046,1.88l-4.324,1.29l4.256,1.478l-0.046,1.889L61.723,92.148z"/>
			<path d="M63.31,92.959l0.221,1.173c-0.665,0.123-1.008,0.651-1.031,1.586c-0.011,0.427,0.066,0.756,0.229,0.99
				c0.164,0.233,0.371,0.354,0.622,0.359c0.183,0.005,0.352-0.043,0.51-0.144c0.156-0.101,0.283-0.32,0.379-0.66l0.364-1.266
				c0.125-0.435,0.261-0.752,0.411-0.957c0.149-0.204,0.357-0.366,0.625-0.484c0.267-0.12,0.549-0.175,0.849-0.168
				c0.596,0.015,1.068,0.248,1.418,0.699c0.347,0.45,0.513,1.021,0.496,1.712c-0.015,0.573-0.152,1.082-0.413,1.526
				c-0.262,0.444-0.624,0.722-1.086,0.835l-0.255-1.149c0.51-0.163,0.771-0.567,0.787-1.212c0.01-0.374-0.062-0.662-0.213-0.862
				s-0.348-0.304-0.589-0.31c-0.381-0.01-0.655,0.293-0.823,0.907L65.5,96.661c-0.189,0.683-0.456,1.136-0.797,1.362
				c-0.344,0.226-0.718,0.334-1.124,0.324c-0.654-0.017-1.163-0.276-1.528-0.776c-0.362-0.504-0.534-1.146-0.516-1.931
				c0.017-0.661,0.169-1.236,0.457-1.725C62.281,93.426,62.72,93.108,63.31,92.959z"/>
			<path d="M50.596,52.374c0.021-0.885,0.371-1.566,1.047-2.042c0.677-0.478,1.502-0.704,2.479-0.68
				c0.97,0.024,1.774,0.306,2.414,0.846s0.948,1.24,0.928,2.099c-0.021,0.866-0.364,1.542-1.029,2.028
				c-0.665,0.488-1.487,0.718-2.467,0.694c-1.028-0.025-1.852-0.306-2.472-0.845C50.875,53.938,50.575,53.237,50.596,52.374z
				 M51.563,52.408c-0.011,0.433,0.159,0.803,0.51,1.112c0.352,0.309,0.996,0.474,1.937,0.497c0.765,0.019,1.368-0.09,1.808-0.327
				c0.44-0.236,0.667-0.616,0.68-1.136c0.025-1.027-0.789-1.563-2.446-1.603c-0.804-0.02-1.415,0.096-1.838,0.347
				C51.793,51.551,51.575,51.92,51.563,52.408z"/>
			<path d="M57.071,64.369l-6.619-1.946l0.031-1.259l4.934-1.207l-4.872-1.327l0.031-1.234l6.707-1.657l-0.031,1.274l-4.888,1.169
				l4.827,1.32l-0.03,1.216l-4.89,1.208l4.826,1.384L57.071,64.369z"/>
			<path d="M50.263,70.067l0.028-1.167l4.319-2.423c0.066-0.038,0.174-0.098,0.322-0.183c0.066-0.038,0.171-0.095,0.313-0.173
				l-4.882-0.121l0.023-0.967l6.663,0.164l-0.033,1.328l-3.981,2.237c-0.033,0.019-0.275,0.154-0.728,0.407l4.642,0.114
				l-0.023,0.947L50.263,70.067z"/>
			<path d="M50.121,75.861l0.106-4.33l6.663,0.164l-0.105,4.286l-0.991-0.024l0.076-3.085l-1.806-0.044l-0.062,2.479l-0.967-0.023
				l0.062-2.479l-1.864-0.046l-0.077,3.129L50.121,75.861z"/>
			<path d="M50.096,76.862l6.663,0.164l-0.061,2.455c-0.022,0.908-0.362,1.63-1.018,2.163c-0.656,0.534-1.456,0.79-2.4,0.766
				c-0.944-0.022-1.726-0.325-2.347-0.908c-0.621-0.581-0.918-1.399-0.893-2.454L50.096,76.862z M51.047,78.121l-0.025,1.001
				c-0.013,0.537,0.178,0.998,0.572,1.382c0.394,0.384,0.989,0.586,1.787,0.606c0.651,0.016,1.206-0.134,1.664-0.449
				c0.458-0.317,0.694-0.743,0.708-1.28l0.028-1.143L51.047,78.121z"/>
		</g>
	</g>
</g>
<g id="Layer_1">
</g>
</svg>
